<svg width="43" height="42" viewBox="0 0 43 42" fill="none" xmlns="http://www.w3.org/2000/svg">
<path d="M38.9533 27.7103C40.5169 27.7103 41.7547 28.9481 41.7547 30.5116C41.7547 32.0751 40.5169 33.3129 38.9533 33.3129H36.152H3.96963C2.53641 33.3129 1.36377 32.1403 1.36377 30.707V6.79825C1.36377 5.36502 2.53641 4.19238 3.96963 4.19238H36.0218" stroke="#1C2D37" stroke-miterlimit="10" stroke-linecap="round" stroke-linejoin="round"/>
<path d="M41.7545 3.8013V30.5114C41.7545 28.9479 40.5167 27.7101 38.9532 27.7101H36.1519V1H38.9532C40.5167 1 41.7545 2.23779 41.7545 3.8013Z" stroke="#1C2D37" stroke-miterlimit="10" stroke-linecap="round" stroke-linejoin="round"/>
<path d="M5.72852 35.5928H37.3898V40.9999H5.72852V35.5928Z" stroke="#1C2D37" stroke-miterlimit="10" stroke-linecap="round" stroke-linejoin="round"/>
<path d="M9.31152 35.5928V36.9609" stroke="#1C2D37" stroke-miterlimit="10" stroke-linecap="round" stroke-linejoin="round"/>
<path d="M12.3735 35.5928V37.6123" stroke="#1C2D37" stroke-miterlimit="10" stroke-linecap="round" stroke-linejoin="round"/>
<path d="M15.4355 35.5928V36.9609" stroke="#1C2D37" stroke-miterlimit="10" stroke-linecap="round" stroke-linejoin="round"/>
<path d="M18.4971 35.5928V37.6123" stroke="#1C2D37" stroke-miterlimit="10" stroke-linecap="round" stroke-linejoin="round"/>
<path d="M21.5591 35.5928V36.9609" stroke="#1C2D37" stroke-miterlimit="10" stroke-linecap="round" stroke-linejoin="round"/>
<path d="M24.6211 35.5928V37.6123" stroke="#1C2D37" stroke-miterlimit="10" stroke-linecap="round" stroke-linejoin="round"/>
<path d="M27.6831 35.5928V36.9609" stroke="#1C2D37" stroke-miterlimit="10" stroke-linecap="round" stroke-linejoin="round"/>
<path d="M30.7446 35.5928V37.6123" stroke="#1C2D37" stroke-miterlimit="10" stroke-linecap="round" stroke-linejoin="round"/>
<path d="M33.8066 35.5928V36.9609" stroke="#1C2D37" stroke-miterlimit="10" stroke-linecap="round" stroke-linejoin="round"/>
<path d="M6.57568 25.7556V19.1758L10.1587 22.7588L13.807 19.1758V25.7556" stroke="#1C2D37" stroke-miterlimit="10" stroke-linecap="round" stroke-linejoin="round"/>
<path d="M15.1748 16.8958C15.4354 16.6352 15.7611 16.5049 16.152 16.5049C16.8686 16.5049 17.4549 17.0912 17.4549 17.8078C17.4549 18.5244 16.8686 19.1107 16.152 19.1107H17.9761" stroke="#1C2D37" stroke-miterlimit="10" stroke-linecap="round" stroke-linejoin="round"/>
<path d="M4.62109 28.7524H15.8263" stroke="#1C2D37" stroke-miterlimit="10" stroke-linecap="round" stroke-linejoin="round"/>
<path d="M15.8262 27.71V29.6644" stroke="#1C2D37" stroke-miterlimit="10" stroke-linecap="round" stroke-linejoin="round"/>
<path d="M4.62109 27.71V29.6644" stroke="#1C2D37" stroke-miterlimit="10" stroke-linecap="round" stroke-linejoin="round"/>
<path d="M21.6895 27.2539V18.2637" stroke="#1C2D37" stroke-miterlimit="10" stroke-linecap="round" stroke-linejoin="round"/>
<path d="M20.647 18.2637H22.6014" stroke="#1C2D37" stroke-miterlimit="10" stroke-linecap="round" stroke-linejoin="round"/>
<path d="M20.647 27.2539H22.6014" stroke="#1C2D37" stroke-miterlimit="10" stroke-linecap="round" stroke-linejoin="round"/>
<path d="M21.5591 4.25732V10.7068" stroke="#1C2D37" stroke-miterlimit="10" stroke-linecap="round" stroke-linejoin="round"/>
<path d="M18.6929 10.707H24.4258" stroke="#1C2D37" stroke-miterlimit="10" stroke-linecap="round" stroke-linejoin="round"/>
<path d="M36.217 16.3095H28.5297L26.3799 14.1597" stroke="#1C2D37" stroke-miterlimit="10" stroke-linecap="round" stroke-linejoin="round"/>
<path d="M1.36377 10.707H10.2237L12.6993 13.1826" stroke="#1C2D37" stroke-miterlimit="10" stroke-linecap="round" stroke-linejoin="round"/>
<path d="M29.5073 33.2476V22.3682" stroke="#1C2D37" stroke-miterlimit="10" stroke-linecap="round" stroke-linejoin="round"/>
</svg>
