<svg width="52" height="40" viewBox="0 0 52 40" fill="none" xmlns="http://www.w3.org/2000/svg">
<path d="M41.5364 38.1829H13.6972C8.10251 38.1829 3.54639 33.6268 3.54639 28.0321V19.5983C3.54639 19.1376 3.92327 18.7607 4.38391 18.7607H12.8261C15.5816 18.7607 18.2952 19.6904 20.4727 21.3738L21.9468 22.5212C23.1361 23.4425 24.6185 23.9534 26.126 23.9534H47.9184C48.379 23.9534 48.7559 24.3303 48.7559 24.7909V30.9718C48.7559 34.9417 45.523 38.1829 41.5364 38.1829ZM5.22143 20.4358V28.0321C5.22143 32.7055 9.02379 36.5079 13.6972 36.5079H41.5364C44.5934 36.5079 47.0808 34.0204 47.0808 30.9635V25.6201H26.126C24.25 25.6201 22.4074 24.9919 20.925 23.8445L19.451 22.6971C17.5665 21.2398 15.2131 20.4274 12.8261 20.4274H5.22143V20.4358Z" fill="#1C2D37"/>
<path d="M49.5013 25.6363H47.9183C47.4577 25.6363 47.0808 25.2595 47.0808 24.7988C47.0808 24.3382 47.4577 23.9613 47.9183 23.9613H49.5013C49.7106 23.9613 49.8865 23.7938 49.8865 23.576V23.1405C49.8865 22.9311 49.719 22.7636 49.5096 22.7553L26.4024 22.7134C24.3672 22.5459 23.4375 21.767 22.2566 20.7787C22.0556 20.6112 21.8379 20.4269 21.6117 20.2427C18.002 17.3365 13.6385 17.3449 13.5966 17.3616H2.60833C2.29007 17.3616 2.03882 17.6212 2.03882 17.9311V18.1824C2.03882 18.5006 2.29845 18.7519 2.60833 18.7519H4.38388C4.84452 18.7519 5.2214 19.1288 5.2214 19.5894C5.2214 20.0501 4.84452 20.4269 4.38388 20.4269H2.60833C1.3688 20.4269 0.36377 19.4219 0.36377 18.1824V17.9311C0.36377 16.6916 1.3688 15.6866 2.60833 15.6866H13.5799C13.7725 15.6866 18.5631 15.6363 22.6586 18.9445C22.9015 19.1372 23.1193 19.3214 23.3287 19.4973C24.4258 20.4186 25.0288 20.9295 26.4694 21.0467L49.518 21.0802C50.6487 21.097 51.5616 22.0182 51.5616 23.1405V23.576C51.5532 24.7067 50.6319 25.6363 49.5013 25.6363Z" fill="#1C2D37"/>
<path d="M7.86815 39.9999C7.48289 39.9999 7.08925 39.891 6.74587 39.6649C6.04235 39.2126 5.69059 38.4086 5.83297 37.5878L6.35223 34.5476C6.42761 34.0954 6.85474 33.7939 7.31538 33.8609C7.76764 33.9362 8.07753 34.3718 8.00215 34.824L7.48289 37.8642C7.44101 38.0904 7.59176 38.216 7.65877 38.2579C7.72577 38.2997 7.89327 38.3835 8.0859 38.2579L10.9251 36.3651C11.3104 36.1054 11.8296 36.2143 12.0893 36.5996C12.3489 36.9848 12.24 37.5041 11.8548 37.7637L9.01556 39.6565C8.6638 39.8827 8.26178 39.9999 7.86815 39.9999Z" fill="#1C2D37"/>
<path d="M45.716 39.9326C45.2386 39.9326 44.7696 39.7651 44.3843 39.4385L42.4748 37.8053C42.123 37.5038 42.0811 36.9761 42.3826 36.6244C42.6841 36.2726 43.2118 36.2307 43.5635 36.5322L45.4731 38.1654C45.649 38.3078 45.8249 38.2575 45.8919 38.224C45.9589 38.1905 46.118 38.0984 46.118 37.8723V34.3463C46.118 33.8857 46.4949 33.5088 46.9555 33.5088C47.4161 33.5088 47.793 33.8857 47.793 34.3463V37.8723C47.793 38.6847 47.3324 39.405 46.5954 39.7483C46.3106 39.8656 46.0091 39.9326 45.716 39.9326Z" fill="#1C2D37"/>
<path d="M6.63684 13.9029C6.1762 13.9029 5.79932 13.526 5.79932 13.0654V9.04525C5.79932 4.06199 9.85293 0 14.8446 0H18.4794C21.1511 0 23.4208 1.81743 23.9987 4.42212L24.1076 4.89114C24.2081 5.3434 23.9233 5.78728 23.4711 5.88779C23.0188 5.98829 22.5749 5.70353 22.4744 5.25127L22.3655 4.78226C21.9551 2.94808 20.3555 1.66667 18.4794 1.66667H14.8446C10.7826 1.66667 7.47436 4.97489 7.47436 9.03687V13.057C7.47436 13.526 7.09748 13.9029 6.63684 13.9029Z" fill="#1C2D37"/>
<path d="M20.1043 9.52261C19.8782 9.52261 19.6604 9.43048 19.5013 9.26298C19.3003 9.0536 19.2249 8.76047 19.2919 8.48408L19.9368 5.86263C20.0122 5.56113 20.2467 5.32662 20.5482 5.25124L25.3472 4.05358C25.6655 3.96983 26.0005 4.08709 26.2099 4.34672L28.0524 6.66666C28.2367 6.89279 28.2869 7.20267 28.1864 7.47068C28.0859 7.74706 27.8514 7.94807 27.5667 8.00669L20.2802 9.51424C20.2216 9.51424 20.163 9.52261 20.1043 9.52261ZM21.436 6.75041L21.2266 7.59631L25.8749 6.63316L25.2132 5.80401L21.436 6.75041Z" fill="#1C2D37"/>
<path d="M22.089 13.4842C21.6284 13.4842 21.2515 13.1073 21.2515 12.6467V11.0973C21.2515 10.6367 21.6284 10.2598 22.089 10.2598C22.5496 10.2598 22.9265 10.6367 22.9265 11.0973V12.6467C22.9265 13.1073 22.5496 13.4842 22.089 13.4842Z" fill="#1C2D37"/>
<path d="M25.6068 17.0853C25.2048 17.0853 24.8447 16.7922 24.7777 16.3818L24.5264 14.8324C24.4511 14.3801 24.7609 13.9446 25.2216 13.8692C25.6822 13.7938 26.1093 14.1037 26.1847 14.5643L26.436 16.1138C26.5114 16.566 26.2015 17.0015 25.7408 17.0769C25.6906 17.0769 25.6487 17.0853 25.6068 17.0853Z" fill="#1C2D37"/>
<path d="M26.9469 12.1187C26.6622 12.1187 26.3858 11.9763 26.235 11.7167L25.766 10.9461C25.5231 10.5525 25.6488 10.0332 26.0424 9.79873C26.436 9.55585 26.9553 9.68148 27.1898 10.0751L27.6588 10.8456C27.9017 11.2393 27.7761 11.7585 27.3824 11.993C27.2401 12.0768 27.0893 12.1187 26.9469 12.1187Z" fill="#1C2D37"/>
<path d="M47.9186 19.4133H38.7477C38.287 19.4133 37.9102 19.0364 37.9102 18.5758C37.9102 18.1152 38.287 17.7383 38.7477 17.7383H47.9269C48.3876 17.7383 48.7645 18.1152 48.7645 18.5758C48.7645 19.0364 48.3792 19.4133 47.9186 19.4133Z" fill="#1C2D37"/>
</svg>
