<svg width="33" height="40" viewBox="0 0 33 40" fill="none" xmlns="http://www.w3.org/2000/svg">
<path d="M21.0997 11.8805C18.747 11.4658 17.3622 8.54278 17.9473 5.22537C18.5136 2.01433 20.7981 -0.379555 23.1861 0.049917C25.5388 0.464682 26.9236 3.38767 26.3385 6.70508C25.7719 9.91908 23.4883 12.3082 21.0997 11.8805ZM19.3604 5.47477C18.9298 7.91502 19.8406 10.2018 21.3491 10.4681C22.9108 10.7345 24.5072 8.83038 24.9254 6.45568C25.3559 4.01543 24.4451 1.72862 22.9367 1.46236C21.4341 1.20193 19.7966 3.0025 19.3604 5.47477Z" fill="#1C2D37"/>
<path d="M27.4045 18.904C25.5685 18.2356 24.8587 15.7113 25.7882 13.1569C26.7189 10.6031 28.8849 9.12481 30.7205 9.79319C32.6019 10.4777 33.2329 13.0774 32.3362 15.5396C31.4052 18.0971 29.2365 19.5721 27.4045 18.904ZM27.1365 13.6473C26.5038 15.3863 26.8513 17.1756 27.8949 17.5561C28.9398 17.9351 30.3552 16.7875 30.9881 15.0493C31.6226 13.3061 31.2596 11.5159 30.2297 11.1412C29.1778 10.7597 27.7658 11.9203 27.1365 13.6473Z" fill="#1C2D37"/>
<path d="M0.765806 15.5397C-0.130445 13.0788 0.4991 10.478 2.38182 9.79326C4.25754 9.10812 6.41522 10.6897 7.31308 13.1569C8.21005 15.6197 7.57853 18.2198 5.69778 18.9041C3.86582 19.5722 1.69694 18.0981 0.765806 15.5397ZM2.11377 15.0493C2.74681 16.7876 4.1641 17.9352 5.20697 17.5561C6.23953 17.1805 6.59816 15.3882 5.96503 13.6474C5.32777 11.8985 3.90089 10.7689 2.87254 11.1413C1.8441 11.5153 1.47795 13.3027 2.11377 15.0493Z" fill="#1C2D37"/>
<path d="M7.02977 6.70488C6.4448 3.38747 7.82953 0.464482 10.1822 0.0497169C12.577 -0.379396 14.856 2.02176 15.421 5.22517C16.006 8.54257 14.6213 11.4656 12.2686 11.8803C9.74624 12.332 7.5622 9.72526 7.02977 6.70488ZM10.4317 1.46216C8.92325 1.72842 8.01239 4.01523 8.44293 6.45548C8.87985 8.93716 10.5268 10.7289 12.0192 10.4679C13.5276 10.2016 14.4385 7.91482 14.008 5.47457C13.5694 2.98939 11.9264 1.20308 10.4317 1.46216Z" fill="#1C2D37"/>
<path d="M14.993 35.2777L13.5249 33.6117C13.2651 33.3124 13.297 32.8592 13.5962 32.5994C13.8925 32.3422 14.3403 32.3705 14.6017 32.663L15.5314 33.7182L18.501 30.349C18.7653 30.0539 19.2188 30.0291 19.5139 30.2935C19.8055 30.5548 19.8337 31.0017 19.5771 31.2976L16.0694 35.2778C15.8074 35.5751 15.3539 35.6036 15.0566 35.3415C15.0342 35.3216 15.0129 35.3003 14.993 35.2777Z" fill="#1C2D37"/>
<path d="M29.576 24.3423C28.0685 22.9775 26.4962 22.955 25.1218 20.9885C24.1124 19.5455 24.0312 17.5286 22.9618 15.818C21.8398 14.0216 19.6461 13.0723 16.6181 13.0723C13.8132 13.0723 11.6119 14.0314 10.4191 15.7738C9.29137 17.4201 9.09497 19.3873 8.14805 20.8561C7.15324 22.401 5.18139 22.9647 3.65882 24.3424C1.49881 26.2964 1.67745 29.6432 3.19957 31.5433C4.64789 33.3517 7.10231 33.9405 9.43261 33.7458C9.94342 37.6772 13.5446 40.4501 17.4759 39.9392C20.7121 39.5187 23.2573 36.9683 23.6712 33.7313C25.8728 33.9296 28.504 33.4543 30.0352 31.5433C31.5574 29.6431 31.736 26.2963 29.576 24.3423ZM16.5509 38.564C13.3747 38.564 10.7999 35.9893 10.7999 32.813C10.7999 29.6368 13.3746 27.062 16.5509 27.062C19.7269 27.062 22.3017 29.6366 22.3019 32.8126C22.2982 35.9875 19.7256 38.5603 16.5509 38.564ZM28.9157 30.6464C27.7165 32.1423 25.5391 32.4792 23.7103 32.2906C23.4263 28.3367 19.9908 25.3616 16.0367 25.6456C12.4728 25.9015 9.63995 28.7399 9.39073 32.3043C7.60541 32.4604 5.48674 32.1036 4.31912 30.6464C3.09608 29.0697 3.22495 26.8321 4.62107 25.4064C6.02347 24.1382 8.13191 23.5308 9.35441 21.6329C10.4246 19.9717 10.6183 18.0215 11.603 16.5843C12.8403 14.7767 15.2764 14.5069 16.618 14.5069C19.1616 14.5069 20.8866 15.2034 21.7448 16.578C22.6841 18.0809 22.7671 20.1243 23.9454 21.8109C25.5365 24.087 27.3231 24.2393 28.6133 25.4058C30.0097 26.8317 30.1388 29.0695 28.9157 30.6464Z" fill="#1C2D37"/>
</svg>
