<svg width="57" height="40" viewBox="0 0 57 40" fill="none" xmlns="http://www.w3.org/2000/svg">
<path d="M55.4545 30H54.5455V22.7273C54.5442 21.7632 54.1607 20.839 53.479 20.1574C52.7973 19.4757 51.8731 19.0922 50.9091 19.0909V3.63636C50.9078 2.67233 50.5243 1.74814 49.8426 1.06646C49.1609 0.384784 48.2368 0.00126281 47.2727 0H9.09091C8.12687 0.00126281 7.20268 0.384784 6.52101 1.06646C5.83933 1.74814 5.45581 2.67233 5.45455 3.63636V19.0909C4.49051 19.0922 3.56632 19.4757 2.88464 20.1574C2.20297 20.839 1.81944 21.7632 1.81818 22.7273V30H0.909091C0.667985 30 0.436754 30.0958 0.266266 30.2663C0.0957789 30.4368 0 30.668 0 30.9091V34.5455C0 34.7866 0.0957789 35.0178 0.266266 35.1883C0.436754 35.3588 0.667985 35.4545 0.909091 35.4545H1.81818V39.0909C1.81818 39.332 1.91396 39.5632 2.08445 39.7337C2.25494 39.9042 2.48617 40 2.72727 40H5.45455C5.66465 40.0001 5.8683 39.9273 6.03075 39.7941C6.19321 39.6608 6.30443 39.4754 6.34545 39.2693L7.10909 35.4545H49.2545L50.0182 39.2693C50.0592 39.4754 50.1704 39.6608 50.3329 39.7941C50.4953 39.9273 50.699 40.0001 50.9091 40H53.6364C53.8775 40 54.1087 39.9042 54.2792 39.7337C54.4497 39.5632 54.5455 39.332 54.5455 39.0909V35.4545H55.4545C55.6956 35.4545 55.9269 35.3588 56.0974 35.1883C56.2679 35.0178 56.3636 34.7866 56.3636 34.5455V30.9091C56.3636 30.668 56.2679 30.4368 56.0974 30.2663C55.9269 30.0958 55.6956 30 55.4545 30ZM7.27273 3.63636C7.27336 3.15435 7.46512 2.69225 7.80596 2.35141C8.1468 2.01057 8.60889 1.81881 9.09091 1.81818H47.2727C47.7547 1.81881 48.2168 2.01057 48.5577 2.35141C48.8985 2.69225 49.0903 3.15435 49.0909 3.63636V19.0909H47.2727V15.4545C47.2715 14.4905 46.8879 13.5663 46.2063 12.8846C45.5246 12.203 44.6004 11.8194 43.6364 11.8182H32.7273C31.7632 11.8194 30.839 12.203 30.1574 12.8846C29.4757 13.5663 29.0922 14.4905 29.0909 15.4545V19.0909H27.2727V15.4545C27.2715 14.4905 26.8879 13.5663 26.2063 12.8846C25.5246 12.203 24.6004 11.8194 23.6364 11.8182H12.7273C11.7632 11.8194 10.839 12.203 10.1574 12.8846C9.47569 13.5663 9.09217 14.4905 9.09091 15.4545V19.0909H7.27273V3.63636ZM45.4545 15.4545V19.0909H30.9091V15.4545C30.9097 14.9725 31.1015 14.5104 31.4423 14.1696C31.7832 13.8288 32.2453 13.637 32.7273 13.6364H43.6364C44.1184 13.637 44.5805 13.8288 44.9213 14.1696C45.2622 14.5104 45.4539 14.9725 45.4545 15.4545ZM25.4545 15.4545V19.0909H10.9091V15.4545C10.9097 14.9725 11.1015 14.5104 11.4423 14.1696C11.7832 13.8288 12.2453 13.637 12.7273 13.6364H23.6364C24.1184 13.637 24.5805 13.8288 24.9213 14.1696C25.2622 14.5104 25.4539 14.9725 25.4545 15.4545ZM3.63636 22.7273C3.63699 22.2453 3.82876 21.7832 4.16959 21.4423C4.51043 21.1015 4.97253 20.9097 5.45455 20.9091H50.9091C51.3911 20.9097 51.8532 21.1015 52.194 21.4423C52.5349 21.7832 52.7266 22.2453 52.7273 22.7273V30H3.63636V22.7273ZM4.70909 38.1818H3.63636V35.4545H5.25455L4.70909 38.1818ZM52.7273 38.1818H51.6545L51.1091 35.4545H52.7273V38.1818ZM54.5455 33.6364H1.81818V31.8182H54.5455V33.6364Z" fill="#1C2D37"/>
</svg>
