<svg width="49" height="48" viewBox="0 0 49 48" fill="none" xmlns="http://www.w3.org/2000/svg">
<path d="M14.5 18L24.0414 9.47028C26.6294 7.15676 27.9234 6 29.5 6C31.0766 6 32.3706 7.15676 34.9586 9.47028L44.5 18" stroke="white" stroke-width="1.5" stroke-linecap="round" stroke-linejoin="round"/>
<path d="M17.5 16V40M41.5 40V16" stroke="white" stroke-width="1.5" stroke-linecap="round" stroke-linejoin="round"/>
<path d="M7.5 28C9.15685 28 10.5 26.2091 10.5 24C10.5 21.7909 9.15685 20 7.5 20C5.84315 20 4.5 21.7909 4.5 24C4.5 26.2091 5.84315 28 7.5 28Z" stroke="white" stroke-width="1.5"/>
<path d="M7.5 28V40" stroke="white" stroke-width="1.5" stroke-linecap="round"/>
<path d="M4.5 40H44.5" stroke="white" stroke-width="1.5" stroke-linecap="round" stroke-linejoin="round"/>
<path d="M24.5 40V31.9994C24.5 30.1142 24.5 29.1716 25.0858 28.5858C25.6716 28 26.6144 28 28.5 28H30.5C32.3856 28 33.3284 28 33.9142 28.5858C34.5 29.1716 34.5 30.1144 34.5 32V40" stroke="white" stroke-width="1.5" stroke-linecap="round" stroke-linejoin="round"/>
<path d="M27.5 22H31.5M27.5 16H31.5" stroke="white" stroke-width="1.5" stroke-linecap="round" stroke-linejoin="round"/>
</svg>
