<svg width="141" height="140" viewBox="0 0 141 140" fill="none" xmlns="http://www.w3.org/2000/svg">
<path d="M96.75 113.75H114.25C115.458 113.75 116.438 112.771 116.438 111.562V98.4375C116.438 92.4066 111.531 87.5 105.5 87.5C99.4691 87.5 94.5625 92.4066 94.5625 98.4375V111.562C94.5625 112.771 95.542 113.75 96.75 113.75ZM98.9375 98.4375C98.9375 94.8188 101.882 91.875 105.5 91.875C109.118 91.875 112.062 94.8188 112.062 98.4375V109.375H98.9375V98.4375ZM136.125 10.9375C136.125 7.31883 133.181 4.375 129.562 4.375H59.5625C55.9438 4.375 53 7.31883 53 10.9375V21.875H33.3125C27.2816 21.875 22.375 26.7816 22.375 32.8125V35H7.0625C5.85418 35 4.875 35.9795 4.875 37.1875V76.5625C4.875 77.7708 5.85418 78.75 7.0625 78.75H12.7191L5.51594 85.9532C4.66145 86.8074 4.66145 88.1923 5.51594 89.0466L11.4375 94.9687V122.5H7.0625C5.85418 122.5 4.875 123.479 4.875 124.688V133.438C4.875 134.646 5.85418 135.625 7.0625 135.625H133.938C135.146 135.625 136.125 134.646 136.125 133.438V124.688C136.125 123.479 135.146 122.5 133.938 122.5H129.562V78.75H133.938C135.146 78.75 136.125 77.7708 136.125 76.5625V67.8125C136.125 67.2082 135.88 66.6611 135.484 66.2651C135.894 65.4084 136.125 64.4495 136.125 63.4375V10.9375ZM59.5625 8.75H129.562C130.769 8.75 131.75 9.73137 131.75 10.9375V63.4375C131.75 64.6436 130.769 65.625 129.562 65.625H71.4062L57.375 51.5941V10.9375C57.375 9.73137 58.3564 8.75 59.5625 8.75ZM26.75 32.8125C26.75 29.1941 29.6941 26.25 33.3125 26.25H53V35H26.75V32.8125ZM22.375 39.375V44.1263C19.829 45.0291 18 47.4605 18 50.3125C18 53.9312 20.9438 56.875 24.5625 56.875C28.1812 56.875 31.125 53.9312 31.125 50.3125C31.125 47.4608 29.296 45.0294 26.75 44.1263V39.375H53V47.2191L50.1718 44.3909C49.3176 43.5367 47.9327 43.5367 47.0784 44.3909L25.8441 65.625H9.25V39.375H22.375ZM26.75 50.3125C26.75 51.5186 25.7686 52.5 24.5625 52.5C23.3564 52.5 22.375 51.5186 22.375 50.3125C22.375 49.1064 23.3564 48.125 24.5625 48.125C25.7686 48.125 26.75 49.1064 26.75 50.3125ZM9.25 74.375V70H21.4691L17.0941 74.375H9.25ZM48.625 49.0312L87.0938 87.5L83.625 90.9688L50.1718 57.5157C49.7447 57.0886 49.1847 56.875 48.625 56.875C48.0653 56.875 47.5053 57.0886 47.0782 57.5157L13.625 90.9688L10.1562 87.5L48.625 49.0312ZM77.0625 122.5V90.5937L81.4375 94.9687V122.5H77.0625ZM55.1875 122.5H42.0625V102.812C42.0625 99.1941 45.0066 96.25 48.625 96.25C52.2434 96.25 55.1875 99.1941 55.1875 102.812V122.5ZM48.625 91.875C42.5941 91.875 37.6875 96.7816 37.6875 102.812V122.5H33.3125V102.812C33.3125 94.3693 40.1818 87.5 48.625 87.5C57.0682 87.5 63.9375 94.3693 63.9375 102.812V122.5H59.5625V102.812C59.5625 96.7816 54.6559 91.875 48.625 91.875ZM48.625 83.125C37.7693 83.125 28.9375 91.9568 28.9375 102.812V122.5H24.5625V86.2187L48.625 62.1562L72.6875 86.2187V122.5H68.3125V102.812C68.3125 91.9568 59.4807 83.125 48.625 83.125ZM15.8125 94.9687L20.1875 90.5937V122.5H15.8125V94.9687ZM131.75 131.25H9.25V126.875H131.75V131.25ZM125.188 122.5H85.8125V94.9687L91.7343 89.0468C92.5886 88.1926 92.5886 86.8077 91.7343 85.9534L84.5312 78.75H125.188V122.5ZM131.75 74.375H80.1562L75.7812 70H131.75V74.375ZM70.5 28.4375C70.5 27.2314 69.5186 26.25 68.3125 26.25C64.6941 26.25 61.75 23.3059 61.75 19.6875C61.75 16.0691 64.6941 13.125 68.3125 13.125H72.6875C73.8955 13.125 74.875 14.1045 74.875 15.3125C74.875 16.5208 73.8955 17.5 72.6875 17.5H68.3125C67.1064 17.5 66.125 18.4814 66.125 19.6875C66.125 20.8936 67.1064 21.875 68.3125 21.875C71.9309 21.875 74.875 24.8191 74.875 28.4375C74.875 32.0559 71.9309 35 68.3125 35H63.9375C62.7292 35 61.75 34.0208 61.75 32.8125C61.75 31.6045 62.7292 30.625 63.9375 30.625H68.3125C69.5186 30.625 70.5 29.6436 70.5 28.4375ZM96.75 32.8125V15.3125C96.75 14.1045 97.7295 13.125 98.9375 13.125C100.146 13.125 101.125 14.1045 101.125 15.3125V30.625H107.688C108.896 30.625 109.875 31.6045 109.875 32.8125C109.875 34.0208 108.896 35 107.688 35H98.9375C97.7295 35 96.75 34.0208 96.75 32.8125ZM85.8125 35C89.4309 35 92.375 32.0559 92.375 28.4375V19.6875C92.375 16.0691 89.4309 13.125 85.8125 13.125C82.1941 13.125 79.25 16.0691 79.25 19.6875V28.4375C79.25 32.0559 82.1941 35 85.8125 35ZM83.625 19.6875C83.625 18.4814 84.6064 17.5 85.8125 17.5C87.0186 17.5 88 18.4814 88 19.6875V28.4375C88 29.6436 87.0186 30.625 85.8125 30.625C84.6064 30.625 83.625 29.6436 83.625 28.4375V19.6875ZM70.5 45.9375V54.6875C70.5 58.3059 73.4441 61.25 77.0625 61.25C80.6809 61.25 83.625 58.3059 83.625 54.6875V45.9375C83.625 42.3191 80.6809 39.375 77.0625 39.375C73.4441 39.375 70.5 42.3191 70.5 45.9375ZM74.875 45.9375C74.875 44.7314 75.8564 43.75 77.0625 43.75C78.2686 43.75 79.25 44.7314 79.25 45.9375V54.6875C79.25 55.8936 78.2686 56.875 77.0625 56.875C75.8564 56.875 74.875 55.8936 74.875 54.6875V45.9375ZM116.438 35H120.812C124.431 35 127.375 32.0559 127.375 28.4375V19.6875C127.375 16.0691 124.431 13.125 120.812 13.125H116.438C115.229 13.125 114.25 14.1045 114.25 15.3125V32.8125C114.25 34.0208 115.229 35 116.438 35ZM118.625 17.5H120.812C122.019 17.5 123 18.4814 123 19.6875V28.4375C123 29.6436 122.019 30.625 120.812 30.625H118.625V17.5ZM92.375 54.6875C92.375 55.8936 93.3564 56.875 94.5625 56.875C95.7686 56.875 96.75 55.8936 96.75 54.6875V41.5625C96.75 40.3545 97.7295 39.375 98.9375 39.375C100.146 39.375 101.125 40.3545 101.125 41.5625V54.6875C101.125 58.3059 98.1809 61.25 94.5625 61.25C90.9441 61.25 88 58.3059 88 54.6875V41.5625C88 40.3545 88.9795 39.375 90.1875 39.375C91.3955 39.375 92.375 40.3545 92.375 41.5625V54.6875ZM107.688 39.375H116.438C117.646 39.375 118.625 40.3545 118.625 41.5625C118.625 42.7708 117.646 43.75 116.438 43.75H114.25V59.0625C114.25 60.2708 113.271 61.25 112.062 61.25C110.854 61.25 109.875 60.2708 109.875 59.0625V43.75H107.688C106.479 43.75 105.5 42.7708 105.5 41.5625C105.5 40.3545 106.479 39.375 107.688 39.375Z" fill="#EED26E"/>
</svg>
