<svg width="49" height="48" viewBox="0 0 49 48" fill="none" xmlns="http://www.w3.org/2000/svg">
<path d="M37.5656 40H38.546C40.8456 40 42.6748 38.9522 44.3172 37.4872C48.4894 33.7652 38.6816 30 35.3334 30M31.3334 10.1375C31.7876 10.0475 32.2592 10 32.743 10C36.3828 10 39.3334 12.6863 39.3334 16C39.3334 19.3137 36.3828 22 32.743 22C32.2592 22 31.7876 21.9526 31.3334 21.8624" stroke="white" stroke-width="1.5" stroke-linecap="round"/>
<path d="M9.296 32.2224C6.93806 33.486 0.755652 36.0662 4.52114 39.2948C6.36056 40.872 8.4092 42 10.9848 42H25.682C28.2576 42 30.3062 40.872 32.1456 39.2948C35.9112 36.0662 29.7288 33.486 27.3708 32.2224C21.8414 29.2592 14.8254 29.2592 9.296 32.2224Z" stroke="white" stroke-width="1.5"/>
<path d="M26.3334 15C26.3334 19.4183 22.7516 23 18.3334 23C13.9151 23 10.3334 19.4183 10.3334 15C10.3334 10.5817 13.9151 7 18.3334 7C22.7516 7 26.3334 10.5817 26.3334 15Z" stroke="white" stroke-width="1.5"/>
</svg>
