<svg width="48" height="48" viewBox="0 0 48 48" fill="none" xmlns="http://www.w3.org/2000/svg">
<mask id="mask0_2526_7205" style="mask-type:luminance" maskUnits="userSpaceOnUse" x="0" y="0" width="48" height="48">
<path d="M0 0H48V48H0V0Z" fill="white"/>
</mask>
<g mask="url(#mask0_2526_7205)">
<path d="M12.7502 25.5002L23.9252 15.2252L35.1752 25.5002L36.2252 24.3752L23.9252 13.2002L11.7002 24.3752L12.7502 25.5002Z" fill="#EED26E"/>
<path d="M33.0003 35.7749V25.2749H31.5003V34.2749H27.7503V27.5999H20.3253V34.2749H16.4253V25.2749H14.9253V35.7749H21.8253V29.0999H26.2503V35.7749H33.0003Z" fill="#EED26E"/>
<path d="M29.475 41.7C30 41.55 30.45 41.325 30.9 41.1L30.225 39.75C29.775 39.975 29.325 40.125 28.875 40.275L29.475 41.7Z" fill="#EED26E"/>
<path d="M31.5752 39.075L32.3252 40.35C32.7752 40.05 33.2252 39.825 33.6002 39.45L32.7752 38.25C32.4002 38.55 31.9502 38.775 31.5752 39.075Z" fill="#EED26E"/>
<path d="M22.95 9.6748C22.425 9.6748 21.9 9.74981 21.375 9.82481L21.6 11.3248C22.05 11.2498 22.575 11.1748 23.025 11.1748L22.95 9.6748Z" fill="#EED26E"/>
<path d="M38.5502 18.4496C38.3252 17.9996 38.0252 17.5496 37.7252 17.0996L36.4502 17.9246C36.6752 18.2996 36.9752 18.7496 37.2002 19.1246L38.5502 18.4496Z" fill="#EED26E"/>
<path d="M27.9753 42.1496L27.6003 40.7246C27.1503 40.8746 26.7003 40.9496 26.1753 41.0246L26.4003 42.5246C27.0003 42.3746 27.5253 42.2246 27.9753 42.1496Z" fill="#EED26E"/>
<path d="M15.8253 40.4996L16.5753 39.2246C16.2003 38.9996 15.7503 38.6996 15.3753 38.4746L14.5503 39.6746C14.9253 39.9746 15.3753 40.2746 15.8253 40.4996Z" fill="#EED26E"/>
<path d="M27.675 10.0498L27.375 11.4748C27.825 11.5498 28.275 11.6998 28.725 11.8498L29.175 10.4248C28.65 10.3498 28.125 10.1998 27.675 10.0498Z" fill="#EED26E"/>
<path d="M24.5252 9.6748L24.4502 11.1748C24.9002 11.1748 25.4252 11.2498 25.8752 11.3248L26.1002 9.82481C25.5752 9.67481 25.0502 9.6748 24.5252 9.6748Z" fill="#EED26E"/>
<path d="M23.9252 41.0996C23.7752 41.0996 23.5502 41.0996 23.4002 41.0996L23.3252 42.5996H23.9252H24.1502H24.9002L24.8252 41.0996C24.6002 41.0996 24.3752 41.0996 24.1502 41.0996H23.9252Z" fill="#EED26E"/>
<path d="M34.6504 15.6748C34.9504 16.0498 35.3254 16.3498 35.6254 16.7248L36.8254 15.7498C36.5254 15.3748 36.1504 14.9248 35.7754 14.5498L34.6504 15.6748Z" fill="#EED26E"/>
<path d="M18.75 41.7752L19.2 40.3502C18.75 40.2002 18.3 40.0502 17.85 39.8252L17.25 41.2502C17.7 41.4002 18.225 41.6252 18.75 41.7752Z" fill="#EED26E"/>
<path d="M20.25 42.2248C20.775 42.3748 21.3 42.4498 21.825 42.5248L22.05 41.0248C21.6 40.9498 21.075 40.8748 20.625 40.7998L20.25 42.2248Z" fill="#EED26E"/>
<path d="M40.2004 29.0998L38.7004 28.7998C38.6254 29.2498 38.4754 29.6998 38.4004 30.2248L39.8254 30.5998C39.9754 30.0748 40.0504 29.5498 40.2004 29.0998Z" fill="#EED26E"/>
<path d="M9.6001 30.5248C9.4501 30.0748 9.3751 29.6248 9.2251 29.1748L7.7251 29.4748C7.8001 29.9998 7.9501 30.5248 8.1001 30.9748L9.6001 30.5248Z" fill="#EED26E"/>
<path d="M7.5 24.7498L9 24.8998C9.075 24.4498 9.075 23.9248 9.15 23.4748L7.65 23.1748C7.575 23.6998 7.5 24.2248 7.5 24.7498Z" fill="#EED26E"/>
<path d="M7.50029 27.9002L9.00029 27.7502C8.92529 27.3002 8.92529 26.7752 8.92529 26.3252H7.42529C7.42529 26.8502 7.50029 27.3752 7.50029 27.9002Z" fill="#EED26E"/>
<path d="M12.225 35.5498C11.925 35.1748 11.625 34.7998 11.4 34.4248L10.125 35.2498C10.425 35.6998 10.725 36.0748 11.025 36.5248L12.225 35.5498Z" fill="#EED26E"/>
<path d="M16.9504 11.1748C16.5004 11.3998 15.9754 11.6248 15.5254 11.9248L16.2754 13.1998C16.6504 12.9748 17.1004 12.7498 17.5504 12.5248L16.9504 11.1748Z" fill="#EED26E"/>
<path d="M8.02539 21.6748L9.45039 22.0498C9.60039 21.5998 9.75039 21.1498 9.90039 20.6998L8.47539 20.1748C8.32539 20.6248 8.17539 21.1498 8.02539 21.6748Z" fill="#EED26E"/>
<path d="M18.375 10.575L18.9 12C19.35 11.85 19.8 11.7 20.25 11.55L19.875 10.125C19.35 10.275 18.825 10.425 18.375 10.575Z" fill="#EED26E"/>
<path d="M13.2754 38.6996L14.2504 37.5746C13.8754 37.2746 13.5004 36.9746 13.2004 36.5996L12.1504 37.6496C12.4504 38.0246 12.9004 38.3996 13.2754 38.6996Z" fill="#EED26E"/>
<path d="M14.2503 12.8252C13.8003 13.1252 13.4253 13.5002 13.0503 13.8002L14.0253 14.9252L15.1503 14.0252L14.2503 12.8252Z" fill="#EED26E"/>
<path d="M10.6502 33.15C10.4252 32.7 10.2002 32.325 10.0502 31.875L8.7002 32.475C8.9252 32.925 9.15019 33.45 9.37519 33.9L10.6502 33.15Z" fill="#EED26E"/>
<path d="M9.15039 18.7502L10.5004 19.4252C10.7254 18.9752 10.9504 18.6002 11.1754 18.1502L9.90039 17.3252C9.67539 17.7752 9.45039 18.3002 9.15039 18.7502Z" fill="#EED26E"/>
<path d="M30 12.4498C30.45 12.6748 30.825 12.8248 31.275 13.1248L32.025 11.8498C31.575 11.6248 31.125 11.3248 30.6 11.1748L30 12.4498Z" fill="#EED26E"/>
<path d="M32.4751 13.7996C32.8501 14.0996 33.2251 14.3996 33.6001 14.6996L34.5751 13.5746C34.2001 13.1996 33.7501 12.8996 33.3001 12.5996L32.4751 13.7996Z" fill="#EED26E"/>
<path d="M37.3501 32.8502L38.7001 33.5252C38.9251 33.0752 39.1501 32.5502 39.3001 32.1002L37.8751 31.5752C37.7251 31.9502 37.5751 32.4002 37.3501 32.8502Z" fill="#EED26E"/>
<path d="M33.9004 37.3498L34.8754 38.4748L36.0004 37.3498L34.8754 36.2998C34.5754 36.6748 34.2004 37.0498 33.9004 37.3498Z" fill="#EED26E"/>
<path d="M40.4251 26.1752V25.9502H38.9251V26.1002C38.9251 26.5502 38.9251 26.9252 38.8501 27.3752L40.3501 27.5252C40.4251 27.0752 40.4251 26.6252 40.4251 26.1752Z" fill="#EED26E"/>
<path d="M12.9753 15.8996L11.8503 14.8496C11.4753 15.2246 11.1753 15.5996 10.8003 16.0496L12.0003 16.9496C12.3003 16.6496 12.6753 16.2746 12.9753 15.8996Z" fill="#EED26E"/>
<path d="M38.625 23.175C38.7 23.625 38.775 24.15 38.85 24.6L40.35 24.45C40.275 23.925 40.2 23.4 40.125 22.875L38.625 23.175Z" fill="#EED26E"/>
<path d="M37.0501 36.1498C37.3501 35.6998 37.6501 35.3248 37.9501 34.8748L36.6751 34.0498C36.4501 34.4248 36.1501 34.8748 35.8501 35.2498L37.0501 36.1498Z" fill="#EED26E"/>
<path d="M37.8003 20.3998C37.9503 20.8498 38.1753 21.2998 38.2503 21.7498L39.6753 21.2998C39.5253 20.7748 39.3753 20.3248 39.1503 19.7998L37.8003 20.3998Z" fill="#EED26E"/>
<path d="M0.900391 24.8998H0.150391V25.6498C0.150391 25.8748 0.150391 26.0998 0.225391 26.3248C0.600391 29.3248 2.70039 31.9498 5.62539 33.1498L5.70039 33.2248C6.00039 33.8248 6.30039 34.4998 6.67539 35.0998C5.02539 34.5748 3.15039 34.8748 1.72539 36.0748L1.35039 36.3748L1.65039 37.1998L1.72539 37.2748C3.37539 39.2248 5.77539 40.2748 8.47539 40.2748L10.3504 40.0498C10.8004 40.4998 11.2504 40.8748 11.7754 41.3248C9.90039 41.4748 8.17539 42.4498 7.27539 44.1748L6.90039 44.8498L7.57539 45.2248C8.85039 45.8998 10.2754 46.1998 11.6254 46.1998C12.8254 46.1998 13.9504 45.9748 15.0754 45.5248L17.2504 44.4748C18.1504 44.7748 19.1254 45.0748 20.1004 45.2998L20.4004 43.7998C14.1754 42.5998 9.22539 38.1748 7.05039 32.5498L6.30039 29.9998C6.30039 29.4748 6.15039 28.9498 6.00039 28.4998C6.00039 27.7498 5.92539 27.0748 5.92539 26.3248C5.92539 25.7998 5.92539 25.3498 6.00039 24.8248L6.37539 22.1998C7.35039 17.6998 10.0504 13.6498 14.0254 11.0248L15.9754 9.74981C18.5254 8.09981 19.2004 4.7998 17.5504 2.3998L17.1004 1.7998L16.5004 2.2498C14.3254 3.6748 12.9004 6.07481 12.6004 8.69981L12.3754 10.4248C11.7004 10.8748 11.1004 11.3998 10.5004 11.9248C10.5754 9.97481 9.60039 8.0248 7.72539 7.0498L7.20039 6.6748L6.82539 7.34981C5.55039 9.67481 5.47539 12.4498 6.45039 14.8498L7.05039 16.4998C6.75039 17.0248 6.52539 17.4748 6.22539 17.9998C6.07539 17.6998 5.92539 17.3998 5.77539 17.1748C5.02539 15.9748 3.82539 15.1498 2.40039 14.8498L1.65039 14.6998L1.50039 15.4498C0.975391 18.0748 1.65039 20.6998 3.30039 22.7248L4.57539 23.8498C4.50039 24.5998 4.42539 25.3498 4.42539 26.0998C3.45039 25.1998 2.17539 24.8248 0.900391 24.8998ZM14.4754 44.0998C12.7504 44.8498 10.8004 44.8498 9.00039 44.1748C10.1254 42.8248 12.2254 42.3748 13.9504 43.1998L15.0004 43.7998L14.4754 44.0998ZM14.1004 8.7748C14.3254 6.8998 15.2254 5.17481 16.6504 3.9748C17.3254 5.62481 16.7254 7.49981 15.0754 8.54981L13.9504 9.29981L14.1004 8.7748ZM7.80039 8.7748C9.15039 9.8998 9.52539 11.8498 8.62539 13.4998L7.95039 14.6248L7.80039 14.2498C7.12539 12.5248 7.05039 10.5748 7.80039 8.7748ZM1.72539 26.3998C2.47539 26.5498 3.15039 26.8498 3.67539 27.3748C4.05039 27.7498 4.42539 28.2748 4.57539 28.7998C4.72539 29.6248 4.87539 30.4498 5.10039 31.1998C3.30039 30.1498 2.10039 28.4248 1.72539 26.3998ZM8.40039 38.8498C6.37539 38.8498 4.57539 38.0998 3.30039 36.8248C4.87539 35.9248 6.90039 36.2998 8.10039 37.7998L8.92539 38.6998L8.40039 38.8498ZM4.42539 21.6748C3.22539 20.1748 2.70039 18.3748 2.85039 16.4998C3.52539 16.7998 4.12539 17.2498 4.50039 17.9248C5.02539 18.7498 5.25039 19.7998 5.02539 20.9248L4.87539 21.9748V22.0498L4.42539 21.6748Z" fill="#EED26E"/>
<path d="M35.4001 8.69981C35.1001 6.07481 33.6751 3.7498 31.5001 2.2498L30.9001 1.7998L30.4501 2.3998C28.8001 4.8748 29.5501 8.09981 32.0251 9.74981L34.2751 11.2498C39.0001 14.5498 41.8501 20.0248 41.9251 25.7998C42.0001 34.5748 35.8501 42.0748 27.2251 43.7248L27.5251 45.2248C28.5751 44.9998 29.6251 44.6998 30.6751 44.3998L32.9251 45.4498C34.0501 45.8998 35.1751 46.1248 36.3751 46.1248C37.8001 46.1248 39.1501 45.8248 40.4251 45.1498L41.1001 44.7748L40.7251 44.0998C39.8251 42.3748 38.0251 41.3248 36.1501 41.2498C36.6751 40.8748 37.1251 40.4248 37.5751 39.9748L39.4501 40.1998H39.5251C42.2251 40.1998 44.6251 39.1498 46.2751 37.1998L46.3501 37.1248L46.6501 36.2998L46.2751 35.9998C44.7751 34.7998 42.9001 34.4998 41.2501 35.0248C41.5501 34.4248 41.8501 33.7498 42.1501 33.0748L42.3751 32.9998C45.3751 31.7998 47.4751 29.1748 47.7751 26.1748C47.7751 25.9498 47.8501 25.7248 47.8501 25.4998V24.7498H47.1001C45.7501 24.6748 44.4001 25.1248 43.4251 26.0248C43.4251 25.9498 43.4251 25.8748 43.4251 25.7248C43.4251 25.0498 43.3501 24.3748 43.2751 23.7748L44.5501 22.6498L44.6251 22.5748C46.2751 20.5498 46.9501 17.8498 46.4251 15.2998L46.2751 14.5498L45.5251 14.6998C43.6501 15.0748 42.2251 16.3498 41.6251 17.9998C41.4001 17.4748 41.1001 16.9498 40.8751 16.4998L41.5501 14.6998C42.5251 12.2248 42.3751 9.52481 41.1751 7.19981L40.8001 6.5248L40.1251 6.8998C38.2501 7.9498 37.2001 9.89981 37.3501 11.9248C36.7501 11.3998 36.1501 10.8748 35.4751 10.3498L35.4001 8.69981ZM32.8501 8.62481C31.2751 7.57481 30.6751 5.69981 31.2751 4.0498C32.7001 5.2498 33.6751 6.9748 33.8251 8.8498L33.9001 9.29981L32.8501 8.62481ZM38.9251 44.2498C37.2001 44.9248 35.2501 44.9248 33.4501 44.1748L32.8501 43.8748L33.9001 43.2748C35.7001 42.3748 37.8001 42.8248 38.9251 44.2498ZM44.3251 27.3748C44.8501 26.8498 45.5251 26.5498 46.2751 26.3998C45.9751 28.4248 44.7001 30.1498 42.8251 31.1998L43.1251 30.2248V30.0748C43.1251 29.0248 43.5751 28.0498 44.3251 27.3748ZM45.1501 16.4998C45.3001 18.3748 44.7751 20.1748 43.5751 21.6748L43.1251 22.0498L42.9751 20.8498C42.6001 18.9748 43.5001 17.2498 45.1501 16.4998ZM44.7001 36.8248C43.4251 38.0998 41.6251 38.8498 39.6001 38.8498L39.0751 38.7748L39.9001 37.8748C41.1751 36.3748 43.1251 35.9998 44.7001 36.8248ZM40.2001 8.7748C40.8751 10.4998 40.8751 12.4498 40.1251 14.2498L39.9751 14.6248L39.3001 13.4998C38.4751 11.9248 38.8501 9.8998 40.2001 8.7748Z" fill="#EED26E"/>
</g>
</svg>
