<svg width="49" height="48" viewBox="0 0 49 48" fill="none" xmlns="http://www.w3.org/2000/svg">
<g clip-path="url(#clip0_1282_53275)">
<path d="M20.4578 10.8623H13.3448C12.6985 10.8623 12.173 11.3878 12.173 12.0342V23.653C12.173 24.299 12.6985 24.8248 13.3448 24.8248H20.4578C21.1041 24.8248 21.6296 24.299 21.6296 23.653V12.0342C21.6296 11.3878 21.1041 10.8623 20.4578 10.8623ZM16.198 23.4186H13.5792V20.5431H16.198V23.4186ZM16.198 19.1368H13.5792V16.5499H16.198V19.1368ZM16.198 15.1437H13.5792V12.2686H16.198V15.1437ZM20.2234 23.4186H17.6042V20.5431H20.2234V23.4186ZM20.2234 19.1368H17.6042V16.5499H20.2234V19.1368ZM20.2234 15.1437H17.6042V12.2686H20.2234V15.1437Z" fill="#EED26E"/>
<path d="M29.8881 38.9341C29.4995 38.9341 29.1849 39.249 29.1849 39.6372V41.3254C29.1849 41.7136 29.4995 42.0286 29.8881 42.0286C30.2766 42.0286 30.5912 41.7136 30.5912 41.3254V39.6372C30.5912 39.249 30.2766 38.9341 29.8881 38.9341Z" fill="#EED26E"/>
<path d="M48.4935 31.8333C48.4609 31.5864 48.3345 31.3663 48.1379 31.214L33.2415 19.6882C32.9112 19.433 32.5164 19.2979 32.0997 19.2979C31.6825 19.2979 31.2878 19.433 30.9571 19.6886L28.7042 21.4318V19.4125C28.7042 19.0239 28.3896 18.7094 28.001 18.7094C27.6125 18.7094 27.2979 19.0239 27.2979 19.4125V22.5198L16.0618 31.2136C15.8663 31.3645 15.7363 31.5919 15.7055 31.8362C15.6736 32.0834 15.7399 32.3287 15.8919 32.5269L17.0319 34.0096C17.211 34.2415 17.4813 34.3744 17.7739 34.3744C17.9797 34.3744 18.1829 34.3052 18.3462 34.1788L32.0997 23.5375L42.4953 31.5809V46.2308H36.8322V44.9125C36.8322 44.5239 36.5176 44.2094 36.1291 44.2094C35.7405 44.2094 35.426 44.5239 35.426 44.9125V46.2308H28.7723V35.4591H35.426V41.6078C35.426 41.9963 35.7405 42.3109 36.1291 42.3109C36.5176 42.3109 36.8322 41.9963 36.8322 41.6078V35.2247C36.8322 34.5787 36.3063 34.0529 35.6603 34.0529H28.5383C27.8919 34.0529 27.366 34.5787 27.366 35.2247V46.2308H22.023V44.313C22.023 43.6666 21.4975 43.1411 20.8511 43.1411H20.178C20.2341 42.8613 20.2645 42.5724 20.2645 42.2765C20.2645 39.843 18.2844 37.8633 15.8509 37.8633C14.53 37.8633 13.294 38.4694 12.4675 39.4523C12.1547 39.3534 11.8222 39.2996 11.4772 39.2996C11.2238 39.2996 10.9748 39.3278 10.7327 39.3842C9.96697 38.0724 8.53802 37.2286 6.99334 37.2286C6.82891 37.2286 6.66631 37.2389 6.50591 37.2576V13.7212L16.9019 5.677L27.2983 13.7212V16.1309C27.2983 16.5194 27.6128 16.834 28.0014 16.834C28.3896 16.834 28.7045 16.5194 28.7045 16.1309V14.8092L30.6557 16.3187C30.8187 16.4451 31.0219 16.5143 31.2277 16.5143C31.521 16.5143 31.7917 16.381 31.97 16.1488C31.9726 16.1455 31.9751 16.1418 31.9777 16.1385L33.0698 14.6635L33.0767 14.6547C33.1489 14.5642 33.3404 14.3243 33.2957 13.9731C33.2631 13.7252 33.1364 13.5051 32.9401 13.3539L18.0441 1.82812C17.7138 1.57288 17.319 1.43774 16.9019 1.43774C16.4848 1.43774 16.09 1.57288 15.7593 1.82849L11.6695 4.99292V4.10669C12.2225 4.01294 12.6451 3.53174 12.6451 2.95276V1.54688C12.6451 0.900513 12.1192 0.375 11.4732 0.375H5.77532C5.12933 0.375 4.60345 0.900513 4.60345 1.54688V2.95239C4.60345 3.53174 5.02606 4.01257 5.57903 4.10669V9.70532L0.865167 13.3528C0.668878 13.5037 0.538873 13.7314 0.508111 13.975C0.475885 14.2225 0.541802 14.4679 0.694146 14.6664L1.83416 16.1492C2.01287 16.3813 2.28314 16.5143 2.5761 16.5143C2.78191 16.5143 2.9848 16.4451 3.14886 16.3187L5.09966 14.8092V37.671C3.98345 38.2203 3.12396 39.2384 2.80462 40.4802C1.74444 40.8889 1.01605 41.9187 1.01605 43.0876C1.01605 43.2166 1.0252 43.3433 1.04205 43.4678C0.819024 43.6813 0.679864 43.9808 0.679864 44.313V46.4656C0.679864 47.1116 1.20538 47.6375 1.85174 47.6375H45.9395C46.3281 47.6375 46.6426 47.3225 46.6426 46.9343C46.6426 46.5458 46.3281 46.2312 45.9395 46.2312H43.9015V32.6689L45.8531 34.1788C46.016 34.3048 46.2193 34.3744 46.4251 34.3744C46.7184 34.3744 46.9891 34.2411 47.1674 34.0085C47.17 34.0052 47.1725 34.002 47.1751 33.9987L48.2675 32.5232L48.2748 32.514C48.3466 32.424 48.5378 32.1841 48.4935 31.8333ZM15.8509 39.2695C17.5091 39.2695 18.8582 40.6187 18.8582 42.2765C18.8582 42.5771 18.8128 42.8672 18.7304 43.1411H14.7197C14.7501 42.9624 14.7669 42.7786 14.7669 42.5911C14.7669 41.6371 14.3586 40.7772 13.7085 40.1752C14.2645 39.6108 15.0335 39.2695 15.8509 39.2695ZM6.0097 1.78125H11.2388V2.71802H6.0097V1.78125ZM10.2632 4.12427V6.08093L6.98528 8.61731V4.12427H10.2632ZM2.66143 14.918L2.09417 14.1801L16.6196 2.94067C16.7027 2.87659 16.7975 2.84399 16.9019 2.84399C17.0063 2.84399 17.1011 2.87659 17.1839 2.94031L31.6895 14.1643L31.1358 14.9125L17.3322 4.23193C17.0788 4.03601 16.725 4.03601 16.4716 4.23193L2.66143 14.918ZM20.6168 46.2312H2.08611V44.5474H8.56292C8.9511 44.5474 9.26604 44.2328 9.26604 43.8442C9.26604 43.4557 8.9511 43.1411 8.56292 43.1411H2.42413C2.42339 43.1232 2.4223 43.1056 2.4223 43.0876C2.4223 42.4244 2.89361 41.8513 3.54363 41.7253C3.8377 41.6682 4.06329 41.4313 4.10577 41.135C4.31085 39.7101 5.5523 38.6353 6.99334 38.6353C8.19012 38.6353 9.28436 39.3864 9.71612 40.504C9.78643 40.6864 9.92925 40.8311 10.1109 40.9039C10.2925 40.9764 10.4958 40.9698 10.6727 40.8864C10.9253 40.767 11.1963 40.7062 11.4772 40.7062C12.5158 40.7062 13.3606 41.5518 13.3606 42.5914C13.3606 42.783 13.3306 42.9672 13.2772 43.1411H11.9379C11.5494 43.1411 11.2348 43.4561 11.2348 43.8442C11.2348 44.2328 11.5494 44.5474 11.9379 44.5474H20.6168V46.2312ZM46.3335 32.7726L32.53 22.0924C32.2765 21.8961 31.9228 21.8961 31.6694 22.0924L17.8588 32.7781L17.2916 32.0402L31.8173 20.8011C31.9004 20.7367 31.9953 20.7041 32.0997 20.7041C32.2037 20.7041 32.2989 20.7367 32.3816 20.8008L46.8873 32.0244L46.3335 32.7726Z" fill="#EED26E"/>
</g>
<defs>
<clipPath id="clip0_1282_53275">
<rect width="48" height="48" fill="white" transform="translate(0.5)"/>
</clipPath>
</defs>
</svg>
