<svg width="141" height="140" viewBox="0 0 141 140" fill="none" xmlns="http://www.w3.org/2000/svg">
<path d="M9.02412 139.934H23.7387C24.9679 139.934 25.9655 138.944 25.9655 137.721C25.9655 136.497 24.9679 135.507 23.7387 135.507H11.2509V93.4565C11.7586 93.1622 12.224 92.8081 12.636 92.3965L61.8167 45.3174C64.5089 46.3797 67.4326 46.9839 70.5011 46.9839C73.5696 46.9839 76.4934 46.3819 79.1878 45.3196L101.084 66.2798C101.516 66.6936 102.072 66.8973 102.629 66.8973C103.213 66.8973 103.796 66.6693 104.232 66.2178C105.085 65.3392 105.059 63.9384 104.175 63.0885L83.3697 43.1707C84.8639 42.2036 86.24 41.0749 87.4736 39.8046L106.35 57.8457C106.573 58.2441 106.9 58.5694 107.314 58.7686L124.169 74.8799C124.391 75.2694 124.71 75.5903 125.117 75.7872L135.265 85.485C135.77 85.9874 136.049 86.6535 136.049 87.3617C136.049 88.0699 135.77 88.736 135.265 89.2384C134.568 89.9311 133.557 90.1878 132.611 89.8957C132.179 89.7695 131.8 89.5504 131.459 89.2074L112.69 71.2416C111.803 70.3961 110.394 70.4205 109.541 71.3013C108.688 72.1799 108.715 73.5808 109.599 74.4306L128.337 92.3655C128.767 92.7948 129.241 93.1556 129.754 93.4543V135.507H117.264C116.034 135.507 115.037 136.497 115.037 137.721C115.037 138.944 116.034 139.934 117.264 139.934H131.978C133.207 139.934 134.205 138.944 134.205 137.721V94.3639C135.764 94.1824 137.253 93.5185 138.411 92.3655C139.758 91.0288 140.5 89.2517 140.5 87.3595C140.5 85.4673 139.758 83.6924 138.38 82.3247L128.306 72.6955V40.2539H130.533C131.762 40.2539 132.76 39.2646 132.76 38.0408V29.1884C132.76 27.9646 131.762 26.9753 130.533 26.9753H103.812C102.582 26.9753 101.585 27.9646 101.585 29.1884V38.0408C101.585 39.2646 102.582 40.2539 103.812 40.2539H106.038V51.4123L90.266 36.3367C92.7066 32.6408 94.1362 28.2324 94.1362 23.4919C94.1362 15.288 89.9387 7.8122 82.9087 3.49447C81.8599 2.85046 80.4905 3.17136 79.8447 4.21372C79.1967 5.25387 79.5218 6.61714 80.5684 7.25893C86.2756 10.7667 89.6826 16.8328 89.6826 23.4919C89.6826 34.0041 81.0761 42.5555 70.4989 42.5555C59.9217 42.5555 51.3152 34.0041 51.3152 23.4919C51.3152 12.9798 59.9239 4.42618 70.5011 4.42618C71.7303 4.42618 72.7279 3.43693 72.7279 2.21309C72.7279 0.989251 71.7303 0 70.5011 0C57.4678 0 46.8638 10.5387 46.8638 23.4919C46.8638 28.1925 48.2756 32.5656 50.6761 36.2415L24.9835 60.8821C24.0994 61.7319 24.0727 63.1328 24.9278 64.0114C25.3642 64.4606 25.9477 64.6886 26.5311 64.6886C27.0878 64.6886 27.6445 64.4828 28.0765 64.0689L53.4596 39.7294C54.7132 41.0285 56.1117 42.1859 57.637 43.1752L9.51401 89.2384C9.20226 89.5482 8.82594 89.7673 8.36499 89.9023C7.44311 90.1812 6.4366 89.9289 5.73962 89.2362C5.23414 88.7338 4.95579 88.0677 4.95579 87.3595C4.95579 86.6513 5.23414 85.9851 5.71067 85.5115L20.8305 71.0114C21.7146 70.1616 21.7413 68.7607 20.8862 67.8821C20.0311 67.0035 18.6216 66.9791 17.7375 67.8268L2.58872 82.3535C1.24152 83.6902 0.5 85.4673 0.5 87.3595C0.5 89.2517 1.24152 91.0266 2.58872 92.3655C3.74888 93.5185 5.24082 94.1824 6.79511 94.3639V137.721C6.79734 138.942 7.79271 139.934 9.02412 139.934ZM106.038 31.4015H128.306V35.8277H106.038V31.4015ZM110.492 40.2539H123.853V68.4398L110.492 55.6702V40.2539Z" fill="#EED26E"/>
<path d="M34.6253 120.046C32.9374 122.523 32.0444 125.42 32.0444 128.416V137.784C32.0444 139.008 33.042 139.997 34.2712 139.997C35.5004 139.997 36.498 139.008 36.498 137.784V128.416C36.498 126.307 37.126 124.271 38.3128 122.527C39.0031 121.516 38.7359 120.139 37.7183 119.453C36.7006 118.767 35.3156 119.033 34.6253 120.046Z" fill="#EED26E"/>
<path d="M51.2592 137.787V130.515C51.2592 129.291 50.2616 128.302 49.0324 128.302C47.8033 128.302 46.8057 129.291 46.8057 130.515V137.787C46.8057 139.011 47.8033 140 49.0324 140C50.2616 140 51.2592 139.011 51.2592 137.787Z" fill="#EED26E"/>
<path d="M106.731 140C107.96 140 108.957 139.011 108.957 137.787V128.419C108.957 121.319 103.876 115.158 96.8726 113.768L81.7862 110.77V106.261C84.2757 104.626 86.4379 102.468 88.0546 99.8147C88.6914 98.7679 88.3552 97.4069 87.3041 96.7739C86.2487 96.1432 84.8836 96.4752 84.2445 97.5198C81.3052 102.344 76.168 105.221 70.5008 105.221C61.6472 105.221 54.4435 98.0642 54.4435 89.2627V83.6902C55.6994 83.8384 57.296 83.9712 59.1064 83.9712C64.13 83.9712 70.6434 82.9643 75.0524 78.5536C77.052 80.386 80.7151 82.723 86.5582 83.2143V89.2627C86.5582 90.4866 87.5558 91.4758 88.785 91.4758C90.0141 91.4758 91.0117 90.4866 91.0117 89.2627V78.3101C91.0117 67.2668 82.0578 58.1777 71.0575 58.0537L70.5008 58.0493L70.011 58.0515C58.9706 58.1622 49.99 67.2491 49.99 78.3079V89.2605C49.99 96.3579 53.6641 102.614 59.2177 106.266V110.767L44.1313 113.766C42.9244 114.005 42.1428 115.171 42.3855 116.371C42.597 117.424 43.5278 118.15 44.5655 118.15C44.7103 118.15 44.8572 118.137 45.0042 118.106L60.0951 115.107C61.803 119.148 65.8224 121.997 70.5008 121.997C75.1815 121.997 79.2009 119.148 80.9088 115.107L95.9997 118.106C100.928 119.084 104.504 123.42 104.504 128.417V137.785C104.504 139.011 105.499 140 106.731 140ZM70.0644 62.4777L70.5008 62.4755L71.0041 62.4777C79.5817 62.5751 86.5582 69.6769 86.5582 78.3079V78.7683C79.5906 78.0556 77.0075 74.1695 76.9028 74.0057C76.5109 73.3595 75.8139 72.9545 75.0546 72.9368C74.2819 72.9523 73.576 73.282 73.1529 73.9083C68.7573 80.3661 58.5363 79.7575 54.4457 79.2197V78.3057C54.4435 69.6658 61.4468 62.564 70.0644 62.4777ZM70.5008 117.57C66.7354 117.57 63.6713 114.525 63.6713 110.781V108.459C65.8112 109.214 68.1048 109.645 70.5008 109.645C72.8813 109.645 75.1749 109.211 77.3326 108.459V110.781C77.3304 114.525 74.2663 117.57 70.5008 117.57Z" fill="#EED26E"/>
<path d="M89.7432 130.515V137.787C89.7432 139.011 90.7408 140 91.9699 140C93.1991 140 94.1967 139.011 94.1967 137.787V130.515C94.1967 129.291 93.1991 128.302 91.9699 128.302C90.7408 128.302 89.7432 129.291 89.7432 130.515Z" fill="#EED26E"/>
<path d="M83.8598 20.3004C83.5614 19.3886 82.7063 18.7712 81.7421 18.7712H74.7745L72.6212 12.1828C72.3228 11.2732 71.4677 10.6558 70.5035 10.6558C69.5393 10.6558 68.6842 11.2732 68.3859 12.1828L66.2326 18.7712H59.265C58.3008 18.7712 57.4457 19.3886 57.1473 20.3004C56.8489 21.21 57.1762 22.2103 57.9556 22.7724L63.5938 26.8445L61.4405 33.4351C61.1421 34.3469 61.4695 35.345 62.2488 35.9071C63.0304 36.4737 64.0859 36.4737 64.8675 35.9071L70.5013 31.8372L76.1395 35.9071C76.5292 36.1904 76.9901 36.3298 77.4489 36.3298C77.9076 36.3298 78.3685 36.1904 78.7582 35.9071C79.5376 35.345 79.8649 34.3469 79.5665 33.4351L77.4132 26.8445L83.0514 22.7724C83.8308 22.2103 84.1581 21.21 83.8598 20.3004ZM73.4852 24.2109C72.7036 24.7731 72.3785 25.7712 72.6769 26.683L73.2135 28.3229L71.8106 27.3115C71.421 27.0282 70.96 26.8888 70.5013 26.8888C70.0426 26.8888 69.5816 27.0282 69.1919 27.3115L67.7891 28.3229L68.3257 26.683C68.6241 25.7712 68.2968 24.7731 67.5174 24.2109L66.1145 23.1973H67.847C68.8112 23.1973 69.6662 22.5799 69.9646 21.6703L70.5013 20.0282L71.038 21.6681C71.3363 22.5777 72.1914 23.1951 73.1556 23.1951H74.8881L73.4852 24.2109Z" fill="#EED26E"/>
</svg>
