<svg width="49" height="48" viewBox="0 0 49 48" fill="none" xmlns="http://www.w3.org/2000/svg">
<path d="M32.6667 20L36.9655 21.2896C39.7119 22.1136 41.0851 22.5256 41.8759 23.5884C42.6667 24.6512 42.6667 26.085 42.6667 28.9522V44" stroke="white" stroke-width="1.5" stroke-linejoin="round"/>
<path d="M16.6667 18H22.6667M16.6667 26H22.6667" stroke="white" stroke-width="1.5" stroke-linecap="round" stroke-linejoin="round"/>
<path d="M24.6667 44V38C24.6667 36.1144 24.6667 35.1716 24.0809 34.5858C23.4951 34 22.5523 34 20.6667 34H18.6667C16.7811 34 15.8383 34 15.2525 34.5858C14.6667 35.1716 14.6667 36.1144 14.6667 38V44" stroke="white" stroke-width="1.5" stroke-linejoin="round"/>
<path d="M4.66669 44H44.6667" stroke="white" stroke-width="1.5" stroke-linecap="round"/>
<path d="M6.66669 44V13.4345C6.66669 8.41299 6.66669 5.90223 8.24905 4.65649C9.83143 3.41075 12.1615 4.08711 16.8217 5.43981L26.8217 8.34245C29.6339 9.15875 31.0401 9.56689 31.8533 10.6793C32.6667 11.7917 32.6667 13.3069 32.6667 16.3371V44" stroke="white" stroke-width="1.5" stroke-linecap="round" stroke-linejoin="round"/>
</svg>
