<svg width="30" height="30" viewBox="0 0 30 30" fill="none" xmlns="http://www.w3.org/2000/svg">
<g clip-path="url(#clip0_2894_6321)">
<path d="M6.54305 17.5001H12.0641L10.9243 28.2763C10.9193 28.3088 10.9179 28.4049 10.9179 28.4374C10.9179 29.2987 11.6192 30 12.4805 30C12.9705 30 13.4379 29.7649 13.748 29.3488L24.668 13.7501C24.8692 13.4811 24.9804 13.1488 24.9804 12.8126C24.9804 11.9513 24.2793 11.25 23.418 11.25H16.6605L17.7855 1.74614C17.7892 1.70998 17.7917 1.59874 17.7917 1.56258C17.793 0.701294 17.0918 0 16.2305 0C15.7404 0 15.2731 0.235062 14.9531 0.663757L5.29289 15C5.09171 15.2687 4.98047 15.6013 4.98047 15.9375C4.98047 16.7988 5.68176 17.5001 6.54305 17.5001Z" fill="#EED26E"/>
</g>
<defs>
<clipPath id="clip0_2894_6321">
<rect width="30" height="30" fill="white"/>
</clipPath>
</defs>
</svg>
