<svg width="56" height="56" viewBox="0 0 56 56" fill="none" xmlns="http://www.w3.org/2000/svg">
<path d="M16.3333 21L27.4649 11.0487C30.4843 8.34955 31.9939 7 33.8333 7C35.6727 7 37.1823 8.34955 40.2017 11.0487L51.3333 21" stroke="white" stroke-width="1.5" stroke-linecap="round" stroke-linejoin="round"/>
<path d="M19.8333 18.6665V46.6665M47.8333 46.6665V18.6665" stroke="white" stroke-width="1.5" stroke-linecap="round" stroke-linejoin="round"/>
<path d="M8.16669 32.6668C10.0997 32.6668 11.6667 30.5775 11.6667 28.0002C11.6667 25.4228 10.0997 23.3335 8.16669 23.3335C6.23369 23.3335 4.66669 25.4228 4.66669 28.0002C4.66669 30.5775 6.23369 32.6668 8.16669 32.6668Z" stroke="white" stroke-width="1.5"/>
<path d="M8.16669 32.6665V46.6665" stroke="white" stroke-width="1.5" stroke-linecap="round"/>
<path d="M4.66669 46.6665H51.3334" stroke="white" stroke-width="1.5" stroke-linecap="round" stroke-linejoin="round"/>
<path d="M28 46.6665V37.3325C28 35.1331 28 34.0334 28.6834 33.3499C29.3669 32.6665 30.4668 32.6665 32.6667 32.6665H35C37.1999 32.6665 38.2998 32.6665 38.9832 33.3499C39.6667 34.0334 39.6667 35.1333 39.6667 37.3332V46.6665" stroke="white" stroke-width="1.5" stroke-linecap="round" stroke-linejoin="round"/>
<path d="M31.5 25.6665H36.1667M31.5 18.6665H36.1667" stroke="white" stroke-width="1.5" stroke-linecap="round" stroke-linejoin="round"/>
</svg>
