<svg width="56" height="56" viewBox="0 0 56 56" fill="none" xmlns="http://www.w3.org/2000/svg">
<path d="M30.3333 38.9744C30.3333 36.8326 30.3333 35.7618 30.8079 34.8348C31.2823 33.9078 32.1671 33.2502 33.9365 31.9354L35.1031 31.0683C37.8558 29.0227 39.2322 28 40.8333 28C42.4345 28 43.8109 29.0227 46.5635 31.0683L47.7302 31.9354C49.4996 33.2502 50.3844 33.9078 50.8587 34.8348C51.3333 35.7618 51.3333 36.8326 51.3333 38.9744V42.4158C51.3333 46.6195 51.3333 48.7214 49.9665 50.0274C48.5996 51.3333 46.3997 51.3333 42 51.3333H30.3333V38.9744Z" stroke="white" stroke-width="1.5" stroke-linejoin="round"/>
<path d="M42 28.0003V11.6665C42 5.87517 40.7913 4.6665 35 4.6665H25.6667C19.8753 4.6665 18.6667 5.87517 18.6667 11.6665V51.3332" stroke="white" stroke-width="1.5" stroke-linecap="round" stroke-linejoin="round"/>
<path d="M8.16669 37.3333C10.0997 37.3333 11.6667 35.244 11.6667 32.6667C11.6667 30.0893 10.0997 28 8.16669 28C6.23369 28 4.66669 30.0893 4.66669 32.6667C4.66669 35.244 6.23369 37.3333 8.16669 37.3333Z" stroke="white" stroke-width="1.5"/>
<path d="M8.16666 37.3335V51.3335" stroke="white" stroke-width="1.5" stroke-linecap="round"/>
<path d="M4.66669 51.3335H46.6667" stroke="white" stroke-width="1.5" stroke-linecap="round"/>
<path d="M28 14H32.6667M28 21H32.6667" stroke="white" stroke-width="1.5" stroke-linecap="round"/>
<path d="M40.8333 51.3332V46.6665" stroke="white" stroke-width="1.5" stroke-linecap="round" stroke-linejoin="round"/>
</svg>
