<svg width="135" height="85" viewBox="0 0 135 85" fill="none" xmlns="http://www.w3.org/2000/svg">
<path d="M131.638 80.8627H123.474V78.1547H127.649C128.283 78.1547 128.805 77.8538 128.805 77.2145C128.805 77.064 128.767 77.0264 128.73 76.9136L124.741 60.0264C124.629 59.4999 124.145 59.1614 123.623 59.1614C123.101 59.1614 122.616 59.5375 122.504 60.064L118.478 77.1392C118.403 77.4777 118.478 77.6658 118.702 77.9291C118.925 78.1923 119.261 78.1547 119.596 78.1547H122.355V80.8627H112.364V78.1547H116.539C117.173 78.1547 117.695 77.8538 117.695 77.2145C117.695 77.064 117.658 77.0264 117.62 76.9136L113.631 60.0264C113.52 59.4999 113.035 59.1614 112.513 59.1614C111.991 59.1614 111.506 59.5375 111.395 60.064L107.368 77.1392C107.294 77.4777 107.368 77.6658 107.592 77.9291C107.816 78.1923 108.151 78.1547 108.487 78.1547H111.245V80.8627H104.721V56.8295H112.886C113.52 56.8295 113.184 56.7167 113.184 56.0773V29.7499C113.184 29.1105 113.52 28.1702 112.886 28.1702H104.721V3.38482C104.721 2.74544 105.057 1.80518 104.423 1.80518H78.2893C77.6555 1.80518 76.2762 2.74544 76.2762 3.38482V29.7499C76.2762 30.3892 77.6555 30.5021 78.2893 30.5021H84.7389V54.5353H78.2893C77.6555 54.5353 76.2762 55.4755 76.2762 56.1149V80.8627H72.8091V56.4534C72.8091 55.814 73.1446 54.8738 72.5108 54.8738H57.0393V23.1304C57.0393 22.491 57.3748 21.5507 56.7411 21.5507H19.0876C18.4538 21.5507 17.0744 22.491 17.0744 23.1304V80.8627H9.39458V78.1547H13.57C14.2038 78.1547 14.7257 77.8538 14.7257 77.2145C14.7257 77.064 14.6884 77.0264 14.6512 76.9136L10.6621 60.0264C10.5503 59.4999 10.0656 59.1614 9.5437 59.1614C9.02177 59.1614 8.53712 59.5375 8.42528 60.064L4.39896 77.1392C4.3244 77.4777 4.39896 77.6658 4.62264 77.9291C4.84633 78.1923 5.18186 78.1547 5.51738 78.1547H8.27615V80.8627H2.57221C1.93843 80.8627 1.4165 81.3892 1.4165 82.0286C1.4165 82.668 1.93843 83.1945 2.57221 83.1945H26.0218H72.5108H78.2893H104.423H131.713C132.346 83.1945 132.868 82.668 132.868 82.0286C132.794 81.3892 132.272 80.8627 131.638 80.8627ZM121.05 75.8229L123.623 64.9534L126.195 75.8229H121.05ZM109.903 75.8229L112.476 64.9534L115.048 75.8229H109.903ZM6.97133 75.8229L9.5437 64.9534L12.1161 75.8229H6.97133ZM63.1906 57.2432V73.5286H56.6665V57.2432H63.1906ZM48.9494 73.491V57.2056H55.4735V73.491H48.9494V73.491ZM41.2696 73.491V57.2056H47.7937V73.491H41.2696V73.491ZM33.5898 73.491V57.2056H40.1139V73.491H33.5898V73.491ZM54.7279 23.8826V54.9114H45.9297L37.2805 23.9202H54.7279V23.8826ZM19.3858 23.8826H36.0876L44.7367 54.9114H25.9845C25.3507 54.9114 23.9713 55.8516 23.9713 56.491V80.8627H19.3858V23.8826ZM26.2827 57.2432H32.434V73.5286H31.763C31.1292 73.5286 30.6073 74.0552 30.6073 74.6946C30.6073 75.3339 31.1292 75.8605 31.763 75.8605H32.434V80.8627H26.2827V57.2432ZM33.5898 75.8229H36.274V80.8627H33.5898V75.8229ZM37.4297 75.8229H43.9538V80.8627H37.4297V75.8229ZM45.1095 75.8229H51.6336V80.8627H45.1095V75.8229ZM52.7893 75.8229H59.3134V80.8627H52.7893V75.8229ZM60.4691 75.8229H63.1533V80.8627H60.4691V75.8229ZM64.3463 75.8229H67.1051C67.7389 75.8229 68.2608 75.2963 68.2608 74.6569C68.2608 74.0176 67.7389 73.491 67.1051 73.491H64.3463V57.2056H70.4604V80.8627H64.3091V75.8229H64.3463ZM98.7564 54.4976L95.252 30.4645H99.092L102.596 54.4976H98.7564ZM110.798 30.5021V54.5353H104.349H103.715L100.21 30.5021H104.349H110.798ZM87.3485 28.1702L88.3178 24.5972C88.3924 24.6348 88.5042 24.6724 88.5788 24.6724H102.335V28.1702H87.3485ZM93.0525 7.59721C93.127 7.59721 93.1643 7.63482 93.2389 7.63482H102.373V10.7189H92.195L93.0525 7.59721ZM91.8595 11.8848H102.373V14.9689H91.002L91.8595 11.8848ZM90.7038 16.0972C90.7784 16.1348 90.8529 16.1348 90.9275 16.1348H102.373V19.2189H89.8463L90.7038 16.0972ZM89.5108 20.4224H102.373V23.5065H88.6534L89.5108 20.4224ZM102.373 6.46889H93.388L94.0218 4.13703H102.373V6.46889ZM78.5503 28.1702V4.13703H92.8288L86.1928 28.1702H78.5503ZM86.9757 30.5021H94.0591L97.5635 54.5353H86.9757V30.5021V30.5021ZM92.7169 68.4512H78.5503V65.3671H92.2696L92.7169 68.4512ZM78.5503 73.9047H93.4998L93.9472 76.9888H78.5503V73.9047ZM78.5503 72.7388V69.6547H92.8288C92.8288 69.6547 92.8288 69.6547 92.8661 69.6547L93.3134 72.7764H78.5503V72.7388ZM78.5503 64.2012V61.1171H91.6358L92.0832 64.2012H78.5503ZM78.5503 56.8295H86.7148H91.0393L91.4867 59.9136H78.5876V56.8295H78.5503ZM78.5503 80.8627V78.1547H94.1336L94.5437 80.8627H78.5503ZM95.6621 80.8627L93.3507 65.2167C93.388 65.1415 93.388 65.1791 93.388 65.0662C93.388 64.9158 93.3134 64.6149 93.2389 64.5397L92.1205 56.8295H102.298V80.8627H95.6621Z" fill="#364440"/>
</svg>
