<svg width="44" height="40" viewBox="0 0 44 40" fill="none" xmlns="http://www.w3.org/2000/svg">
<path d="M23.064 24.1011C23.3336 24.1011 23.5529 23.8817 23.5516 23.6113L23.5129 15.6082L24.4055 15.6005C24.8006 15.5972 25.0986 15.0799 24.7706 14.7444L23.0182 12.954L23.0244 9.14915C23.2115 9.1305 23.3797 9.00932 23.4411 8.81917C23.5243 8.563 23.3837 8.2881 23.1275 8.20525C22.1816 7.89893 21.2219 7.8802 20.0144 8.14335C19.7513 8.20081 19.5846 8.46047 19.6418 8.72362C19.689 8.94087 19.8757 9.08344 20.0875 9.0978L20.0849 9.95686L16.8467 6.64823C16.6845 6.48201 16.3754 6.42174 16.1535 6.64442L7.89093 14.9069C7.58474 15.2131 7.80126 15.7393 8.23566 15.7393H8.23979L9.0921 15.732V23.6526C9.0921 23.9186 9.3051 24.1354 9.57112 24.1402C14.0995 24.2193 18.5004 24.2127 23.064 24.1011ZM21.0631 8.96618C21.4132 8.93273 21.7384 8.93746 22.0495 8.97352L22.0447 11.9592L21.0571 10.9502L21.0631 8.96618ZM9.42287 14.7539L16.4944 7.68244L23.2989 14.6349L9.42287 14.7539ZM13.5343 18.3156V23.2111C12.3913 23.2042 11.2384 23.1923 10.0673 23.1733V15.7236L22.5378 15.6166L22.5742 23.1371C21.0809 23.1717 19.5814 23.1913 18.0743 23.2038V18.3156C18.0743 18.0464 17.8559 17.828 17.5867 17.828H14.0219C13.7527 17.828 13.5343 18.0464 13.5343 18.3156ZM14.5095 18.8031H17.0991V23.2115C16.2421 23.2159 15.3773 23.2157 14.5095 23.2131V18.8031Z" fill="#EED26E"/>
<path d="M17.1985 11.9072C16.8921 10.7654 15.09 10.6051 14.666 11.7361C14.4815 12.2287 14.6406 12.8217 15.0532 13.1772C15.4759 13.5408 16.1024 13.6072 16.5779 13.3445C17.0781 13.068 17.3448 12.45 17.1985 11.9072Z" fill="#EED26E"/>
<path d="M7.49101 25.0543C7.69067 24.8736 7.70591 24.5651 7.52529 24.3654C5.4772 22.1021 4.40808 19.3084 4.43315 16.2854C4.48274 8.53303 11.7109 3.3369 17.6737 4.15908C21.4702 4.63904 25.0223 6.91981 26.9447 10.1126C32.1446 18.685 25.3548 29.6507 15.5183 28.4873C15.2488 28.4543 15.0085 28.647 14.9771 28.9143C14.9453 29.1816 15.1364 29.4241 15.404 29.4555C26.0227 30.7127 33.4135 18.8965 27.7793 9.60817C25.7073 6.16686 21.8819 3.708 17.8016 3.19217C11.1702 2.2782 3.51238 8.0217 3.45799 16.2781C3.43069 19.549 4.58711 22.5719 6.80217 25.02C6.98343 25.22 7.29229 25.2352 7.49101 25.0543Z" fill="#EED26E"/>
<path d="M10.9068 32.9129C16.5006 34.8958 23.2093 33.2095 27.6186 29.2805C27.9075 29.4972 28.3048 29.9306 28.5938 30.1473C28.3079 33.1919 37.2191 39.6107 38.6836 39.9353C39.7066 40.1621 40.929 39.7907 41.3982 38.8758C41.7354 38.5867 41.2986 39.0063 42.9607 37.1591C43.7862 36.2259 43.6987 34.8019 42.7646 33.9762L34.3836 26.5672C33.7728 26.0272 32.9497 25.8869 32.2218 26.1123C31.5025 25.4661 31.0634 24.9227 30.2364 24.3359C31.6194 21.9825 32.3703 19.2986 32.3909 16.495C32.5077 1.25846 12.9697 -5.2072 3.95624 7.08132C0.96588 10.6103 -0.51444 15.3966 0.161499 19.9582C1.0204 25.7546 5.31304 30.9299 10.9068 32.9129ZM32.8911 26.9777C33.1923 26.9777 33.4948 27.0831 33.738 27.298L42.1189 34.7069C42.6474 35.1742 42.6976 35.9846 42.23 36.5134L40.8974 38.0209C40.4298 38.5492 39.6197 38.599 39.0909 38.132L30.71 30.7231C30.1803 30.2551 30.1298 29.4467 30.5989 28.9166C31.7169 27.798 31.9677 26.9777 32.8911 26.9777ZM31.3457 26.6294C31.0482 26.9114 30.8036 27.2259 29.9576 28.1693C29.3809 27.7097 29.1766 27.5274 28.3719 26.8833C28.8622 26.3376 29.3125 25.7644 29.7174 25.1648C30.336 25.6118 30.7099 26.0318 31.3457 26.6294ZM17.9034 1.67841C17.9114 1.67936 17.9196 1.68032 17.9279 1.68095C25.5501 2.3282 31.4744 8.83182 31.4157 16.4877C31.3868 20.4357 29.8222 24.1347 27.0094 26.9037C24.0207 29.8463 20.035 31.319 16.0039 31.1243C8.05621 30.7883 1.82918 24.2098 1.8866 16.2741C1.93164 7.20533 10.2491 0.634943 17.9034 1.67841Z" fill="#EED26E"/>
<path d="M31.6596 0.214582C30.8892 1.35513 30.2908 2.59979 29.8817 3.91429C29.8014 4.17141 29.9448 4.44473 30.202 4.52472C30.4548 4.60456 30.7318 4.46434 30.8124 4.20443C31.1936 2.98071 31.7507 1.82207 32.4678 0.760571C32.6186 0.537414 32.5599 0.234263 32.3367 0.0834812C32.1132 -0.0669832 31.8104 -0.00857517 31.6596 0.214582Z" fill="#EED26E"/>
<path d="M34.6487 3.84997C33.7815 4.18391 32.9729 4.64578 32.2454 5.22351C32.0346 5.3908 31.9994 5.69776 32.1667 5.90854C32.3344 6.11997 32.6414 6.15426 32.8517 5.98726C33.5018 5.47111 34.2243 5.05845 34.9991 4.76038C35.2502 4.66356 35.3756 4.38136 35.2791 4.12995C35.1823 3.87822 34.9004 3.75474 34.6487 3.84997Z" fill="#EED26E"/>
<path d="M33.299 8.50324C33.3742 8.76413 33.6464 8.91079 33.9024 8.83686C34.7306 8.59847 35.6223 8.5207 36.4797 8.60958C36.7463 8.63688 36.9876 8.44356 37.0155 8.17533C37.0434 7.90741 36.8492 7.66775 36.5813 7.63949C35.5991 7.53665 34.5798 7.62648 33.6326 7.89979C33.3739 7.97439 33.2244 8.24453 33.299 8.50324Z" fill="#EED26E"/>
</svg>
