<svg width="41" height="41" viewBox="0 0 41 41" fill="none" xmlns="http://www.w3.org/2000/svg">
<path d="M39.0136 30.0587C37.199 30.0552 37.7604 30.0563 35.9524 30.0527C35.3693 30.0527 34.892 30.5239 34.8908 31.1132L34.874 39.7951C34.8728 40.3797 35.3451 40.8573 35.9333 40.8585C37.7479 40.8621 37.1864 40.861 38.9944 40.8645C39.5792 40.8645 40.0548 40.3916 40.0561 39.8046L40.0728 31.1222C40.074 30.5369 39.5983 30.0599 39.0136 30.0587ZM39.1518 31.9445L39.1368 39.8028C39.1368 39.8812 39.0728 39.9453 38.9944 39.9453L35.9351 39.9393C35.8567 39.9393 35.7933 39.8752 35.7933 39.7963L35.81 31.1144C35.81 31.036 35.8741 30.972 35.9524 30.972L39.0118 30.978C39.0898 30.978 39.1536 31.0428 39.1536 31.1204C39.1536 31.1204 39.1517 32.0062 39.1518 31.9445Z" fill="#EED26E"/>
<path d="M33.6431 30.9021C33.1275 30.6434 31.2905 28.9224 27.9219 28.9224C25.6211 28.9224 24.4227 29.6771 22.987 30.1743C20.7258 31.0338 19.0788 30.7087 17.0874 30.8051C16.6062 30.8051 16.1316 30.9559 15.7504 31.23C14.1747 32.3694 14.9455 34.7403 17.4207 34.798C18.2489 34.793 19.9004 34.7825 19.9779 34.7825C21.8645 34.7825 22.9598 35.6456 23.1916 35.7448C23.4117 35.8695 23.6928 35.7934 23.8188 35.5724C23.9439 35.3516 23.8667 35.0709 23.6465 34.9453C23.3888 34.8367 22.1549 33.8586 19.9276 33.8632L17.4111 33.8788C15.8389 33.8136 15.4466 32.584 16.2884 31.9757C16.5134 31.8135 16.7971 31.7244 17.0915 31.7244C19.0701 31.6246 20.8532 31.9686 23.3119 31.0343C24.7953 30.5173 25.8419 29.8416 27.9219 29.8416C30.9727 29.8416 32.5967 31.3976 33.1416 31.6729C33.3547 31.8117 33.6389 31.7507 33.7778 31.5382C33.916 31.3258 33.8562 31.0409 33.6431 30.9021Z" fill="#EED26E"/>
<path d="M33.5646 39.1893C32.7399 38.8212 30.482 37.9379 27.337 37.6913C24.8393 37.4833 23.1062 38.1292 18.1609 38.8924C16.1183 39.1785 14.0644 38.6614 12.5264 37.4771L2.55604 29.8114C2.38248 29.6756 2.35555 29.2973 2.57938 28.9945C3.06652 28.335 4.55609 28.2111 7.1534 30.0227L9.9141 31.9132C10.8124 32.5236 11.7921 32.9545 12.8262 33.1951C13.0734 33.2526 13.3205 33.0994 13.378 32.8516C13.4354 32.6044 13.2816 32.3573 13.0345 32.2998C12.111 32.085 11.2349 31.699 10.4318 31.1538L7.67586 29.2662C3.72902 26.5151 2.21132 27.9448 1.83968 28.4481C1.33099 29.1375 1.39862 30.0735 1.99289 30.5379L11.9656 38.206C13.6982 39.5394 15.9998 40.1193 18.3033 39.8009C23.3673 39.0139 24.9279 38.4159 27.2634 38.6076C30.2677 38.8434 32.409 39.68 33.19 40.0283C33.251 40.0558 33.3145 40.0684 33.3773 40.0684C33.5526 40.0684 33.7208 39.9673 33.7968 39.7961C33.9004 39.5645 33.7962 39.2928 33.5646 39.1893Z" fill="#EED26E"/>
<path d="M10.7206 16.3068C10.7206 16.053 10.5148 15.8472 10.261 15.8472H8.68227C8.42853 15.8472 8.22266 16.053 8.22266 16.3068C8.22266 16.5605 8.42853 16.7664 8.68227 16.7664H9.80139V17.7946C9.80139 18.0483 10.0073 18.2542 10.261 18.2542C10.5148 18.2542 10.7206 18.0483 10.7206 17.7946V16.3068Z" fill="#EED26E"/>
<path d="M7.06036 16.3068C7.06036 16.053 6.85449 15.8472 6.60074 15.8472H5.02261C4.76886 15.8472 4.56299 16.053 4.56299 16.3068C4.56299 16.5605 4.76886 16.7664 5.02261 16.7664H6.14113V17.7946C6.14113 18.0483 6.347 18.2542 6.60074 18.2542C6.85449 18.2542 7.06036 18.0483 7.06036 17.7946V16.3068Z" fill="#EED26E"/>
<path d="M10.261 21.9545C10.5148 21.9545 10.7206 21.7486 10.7206 21.4949V20.0065C10.7206 19.7527 10.5148 19.5469 10.261 19.5469H8.68227C8.42853 19.5469 8.22266 19.7527 8.22266 20.0065C8.22266 20.2602 8.42853 20.4661 8.68227 20.4661H9.80139V21.4949C9.80139 21.7486 10.0073 21.9545 10.261 21.9545Z" fill="#EED26E"/>
<path d="M6.60074 21.9545C6.85449 21.9545 7.06036 21.7486 7.06036 21.4949V20.0065C7.06036 19.7527 6.85449 19.5469 6.60074 19.5469H5.02261C4.76886 19.5469 4.56299 19.7527 4.56299 20.0065C4.56299 20.2602 4.76886 20.4661 5.02261 20.4661H6.14113V21.4949C6.14113 21.7486 6.347 21.9545 6.60074 21.9545Z" fill="#EED26E"/>
<path d="M32.7351 9.85149L22.4601 1.39047C21.6019 0.68429 20.3607 0.689676 19.5073 1.40184L9.29459 9.93288C8.93851 10.2303 8.73503 10.6672 8.73683 11.131L8.74042 12.1262C8.74301 13.0449 9.81696 13.5455 10.5226 12.9557L20.5672 4.5665C20.8149 4.36003 21.177 4.35704 21.4278 4.5635L31.528 12.8827C32.2408 13.4696 33.3074 12.9563 33.3048 12.0401L33.3012 11.0448C33.2994 10.5804 33.0929 10.1453 32.7351 9.85149ZM32.1121 12.1729L22.0119 3.85373C21.4206 3.36718 20.5648 3.37077 19.9783 3.86091C19.1206 4.57726 10.4299 11.8357 9.93375 12.2501C9.82182 12.3442 9.66056 12.262 9.65965 12.1226L9.65606 11.1274C9.65546 10.9383 9.73805 10.76 9.88348 10.6385L20.0968 2.10683C20.61 1.67912 21.3561 1.67348 21.876 2.10024L32.1516 10.5613C32.297 10.6816 32.3814 10.8587 32.382 11.0484L32.3856 12.0436C32.3865 12.1838 32.2224 12.2638 32.1121 12.1729Z" fill="#EED26E"/>
<path d="M38.992 2.50777C38.8579 2.04696 38.4294 1.72559 37.9495 1.72559H26.173C25.9192 1.72559 25.7134 1.93146 25.7134 2.1852C25.7134 2.43895 25.9192 2.64482 26.173 2.64482H37.9495C38.0231 2.64482 38.0889 2.69449 38.1099 2.76511L39.9633 9.11656C39.9836 9.18598 39.9555 9.23805 39.9364 9.26318C39.9178 9.28832 39.8753 9.33021 39.8029 9.33021H34.6071C34.3533 9.33021 34.1475 9.53608 34.1475 9.78983C34.1475 10.0436 34.3533 10.2494 34.6071 10.2494H39.0836V24.0577H29.346V13.3399C29.346 13.0861 29.1402 12.8803 28.8864 12.8803C28.6327 12.8803 28.4268 13.0861 28.4268 13.3399V24.0577H26.4644C26.2107 24.0577 26.0048 24.2636 26.0048 24.5173C26.0048 24.7711 26.2107 24.9769 26.4644 24.9769H39.5432C39.7969 24.9769 40.0028 24.7711 40.0028 24.5173V10.2264C40.2681 10.1773 40.5058 10.0361 40.6719 9.81436C40.8789 9.53788 40.9424 9.18957 40.8454 8.85862L38.992 2.50777Z" fill="#EED26E"/>
<path d="M1.63911 24.5173C1.63911 24.7711 1.84498 24.9769 2.09873 24.9769H15.5353C15.7891 24.9769 15.995 24.7711 15.995 24.5173C15.995 24.2636 15.7891 24.0577 15.5353 24.0577H13.6113V13.3417C13.6113 13.0879 13.4054 12.8821 13.1517 12.8821C12.8979 12.8821 12.6921 13.0879 12.6921 13.3417V24.0577H2.55834V10.2494H7.03243C7.28617 10.2494 7.49204 10.0436 7.49204 9.78983C7.49204 9.53608 7.28617 9.33021 7.03243 9.33021C1.67281 9.28793 1.80591 9.40242 1.70314 9.26318C1.59493 9.12115 1.65645 9.33464 3.52964 2.76511C3.55059 2.69449 3.61642 2.64482 3.69003 2.64482H16.0931C16.3468 2.64482 16.5527 2.43895 16.5527 2.1852C16.5527 1.93146 16.3468 1.72559 16.0931 1.72559H3.69003C3.21007 1.72559 2.78157 2.04696 2.64751 2.50777L0.794085 8.85803C0.61608 9.46676 0.992975 10.1083 1.63911 10.2267V24.5173Z" fill="#EED26E"/>
<path d="M18.9433 10.2856L20.99 8.21316L23.0619 10.2856C23.1516 10.3754 23.2689 10.4203 23.3868 10.4203C23.7918 10.4203 24.0028 9.92674 23.7118 9.6357L21.6399 7.56324C21.2898 7.21194 20.7171 7.21074 20.3658 7.56324L18.2933 9.6357C18.1138 9.81524 18.1138 10.1061 18.2933 10.2856C18.4729 10.4652 18.7637 10.4652 18.9433 10.2856Z" fill="#EED26E"/>
<path d="M18.2193 28.3293C20.6406 30.7943 24.8726 29.1024 24.9047 25.6296C24.9198 23.9294 23.8369 22.4733 22.3209 21.9267L22.3726 15.4684C22.375 15.1841 22.2421 14.9088 22.0171 14.7323L20.7268 13.7221C20.4366 13.4988 20.023 13.5389 19.7818 13.8166L18.8572 14.8921C18.6322 15.1554 18.6484 15.5534 18.8949 15.7975L19.5538 16.4505L18.8626 17.2219C18.6214 17.4906 18.6406 17.9083 18.9045 18.1531L19.573 18.7749L19.5464 21.9739C16.9696 23.0103 16.2689 26.3438 18.2193 28.3293ZM20.281 18.1782L19.713 17.6504L20.4001 16.8837C20.6376 16.6186 20.6251 16.2159 20.3725 15.9675L19.7094 15.311L20.3348 14.5833L21.4533 15.4612L21.4033 21.7148C21.0911 21.6826 20.8331 21.6834 20.4677 21.7337L20.4934 18.6713C20.4952 18.4834 20.4168 18.3027 20.281 18.1782ZM21.0027 22.6122H21.0296C22.6742 22.6272 23.9998 23.9773 23.9854 25.6212C23.9708 27.2194 22.6834 28.5776 20.9764 28.5776C19.3289 28.5628 18.0057 27.2169 18.0206 25.5686C18.0354 23.927 19.3671 22.6122 21.0027 22.6122Z" fill="#EED26E"/>
<path d="M22.3693 26.9449C22.6283 26.1817 22.2141 25.3676 21.4687 25.1142C20.2627 24.7036 19.1391 25.9598 19.7086 27.1172C20.2757 28.2714 21.9575 28.1526 22.3693 26.9449ZM20.772 26.0101C21.0399 25.8783 21.349 25.997 21.4728 26.2483C21.6024 26.5123 21.4906 26.8241 21.2347 26.9497C20.9704 27.0793 20.6588 26.9675 20.5333 26.7115C20.4716 26.5858 20.5146 26.1364 20.772 26.0101Z" fill="#EED26E"/>
<path d="M33.1306 15.8472H31.5519C31.2982 15.8472 31.0923 16.053 31.0923 16.3068V17.7946C31.0923 18.0483 31.2982 18.2542 31.5519 18.2542C31.8056 18.2542 32.0115 18.0483 32.0115 17.7946V16.7664H33.1306C33.3844 16.7664 33.5903 16.5605 33.5903 16.3068C33.5903 16.053 33.3844 15.8472 33.1306 15.8472Z" fill="#EED26E"/>
<path d="M35.2121 18.2542C35.4658 18.2542 35.6717 18.0483 35.6717 17.7946V16.7664H36.7908C37.0445 16.7664 37.2504 16.5605 37.2504 16.3068C37.2504 16.053 37.0445 15.8472 36.7908 15.8472H35.2121C34.9583 15.8472 34.7524 16.053 34.7524 16.3068V17.7946C34.7524 18.0483 34.9583 18.2542 35.2121 18.2542Z" fill="#EED26E"/>
<path d="M33.1306 19.5469H31.5519C31.2982 19.5469 31.0923 19.7527 31.0923 20.0065V21.4949C31.0923 21.7486 31.2982 21.9545 31.5519 21.9545C31.8056 21.9545 32.0115 21.7486 32.0115 21.4949V20.4661H33.1306C33.3844 20.4661 33.5903 20.2602 33.5903 20.0065C33.5903 19.7527 33.3844 19.5469 33.1306 19.5469Z" fill="#EED26E"/>
<path d="M34.7524 21.4949C34.7524 21.7486 34.9583 21.9545 35.2121 21.9545C35.4658 21.9545 35.6717 21.7486 35.6717 21.4949V20.4661H36.7908C37.0445 20.4661 37.2504 20.2602 37.2504 20.0065C37.2504 19.7527 37.0445 19.5469 36.7908 19.5469H35.2121C34.9583 19.5469 34.7524 19.7527 34.7524 20.0065V21.4949Z" fill="#EED26E"/>
</svg>
