<svg width="40" height="41" viewBox="0 0 40 41" fill="none" xmlns="http://www.w3.org/2000/svg">
<path d="M20.0011 2.68945C19.6055 2.68945 19.2188 2.80676 18.8899 3.02653C18.561 3.2463 18.3046 3.55867 18.1532 3.92414C18.0018 4.28961 17.9622 4.69177 18.0394 5.07975C18.1166 5.46773 18.3071 5.82411 18.5868 6.10383C18.8665 6.38355 19.2229 6.57404 19.6109 6.65121C19.9989 6.72838 20.401 6.68878 20.7665 6.53739C21.1319 6.38601 21.4443 6.12965 21.6641 5.80074C21.8839 5.47183 22.0012 5.08513 22.0012 4.68955C22.0012 4.15909 21.7904 3.65036 21.4154 3.27527C21.0403 2.90018 20.5315 2.68945 20.0011 2.68945ZM20.0011 5.35625C19.8692 5.35625 19.7403 5.31714 19.6307 5.24389C19.521 5.17063 19.4356 5.0665 19.3851 4.94468C19.3347 4.82286 19.3215 4.68881 19.3472 4.55948C19.3729 4.43015 19.4364 4.31136 19.5296 4.21812C19.6229 4.12488 19.7417 4.06138 19.871 4.03566C20.0003 4.00993 20.1344 4.02314 20.2562 4.0736C20.378 4.12406 20.4822 4.20951 20.5554 4.31915C20.6287 4.42879 20.6678 4.55769 20.6678 4.68955C20.6678 4.86637 20.5975 5.03594 20.4725 5.16097C20.3475 5.286 20.1779 5.35625 20.0011 5.35625Z" fill="#EED26E"/>
<path d="M38.0018 13.3565H35.1837L33.3169 6.18416C33.5465 5.9834 33.727 5.73264 33.8445 5.45116C33.962 5.16968 34.0133 4.865 33.9945 4.56057C33.9757 4.25615 33.8873 3.96009 33.7361 3.6952C33.5849 3.43031 33.3749 3.20365 33.1223 3.03266C32.8698 2.86168 32.5813 2.75093 32.2792 2.70895C31.9771 2.66697 31.6694 2.69487 31.3798 2.79051C31.0902 2.88615 30.8263 3.04697 30.6086 3.2606C30.3909 3.47422 30.2252 3.73495 30.1241 4.02272H24.6145C24.4551 2.91276 23.9009 1.89748 23.0535 1.16308C22.2061 0.428685 21.1223 0.0244141 20.0009 0.0244141C18.8796 0.0244141 17.7958 0.428685 16.9484 1.16308C16.101 1.89748 15.5468 2.91276 15.3874 4.02272H9.8778C9.77723 3.7341 9.61169 3.47246 9.39394 3.25798C9.1762 3.0435 8.91209 2.88192 8.62198 2.78572C8.33188 2.68952 8.02355 2.66126 7.7208 2.70314C7.41805 2.74502 7.12897 2.8559 6.87587 3.02724C6.62278 3.19858 6.41244 3.42578 6.26109 3.69132C6.10975 3.95685 6.02144 4.25361 6.00299 4.55869C5.98455 4.86377 6.03645 5.16901 6.1547 5.45084C6.27295 5.73268 6.45438 5.98357 6.68498 6.18416L4.81823 13.3565H4.66689C4.49008 13.3565 4.32053 13.4268 4.19553 13.5518L0.195343 17.552C0.0703037 17.677 3.776e-05 17.8466 0 18.0234V30.0239C0 30.5544 0.210724 31.0631 0.585814 31.4382C0.960904 31.8133 1.46964 32.024 2.00009 32.024H14.0007C14.5311 32.024 15.0398 31.8133 15.4149 31.4382C15.79 31.0631 16.0008 30.5544 16.0008 30.0239V15.3566C16.0008 14.8261 15.79 14.3174 15.4149 13.9423C15.0398 13.5672 14.5311 13.3565 14.0007 13.3565H11.1825L9.31577 6.18416C9.57048 5.96042 9.76391 5.67543 9.8778 5.35612H15.3874C15.4982 6.11606 15.7947 6.83696 16.2505 7.45502C16.7064 8.07309 17.3076 8.56925 18.0008 8.89962V32.1187C17.4301 32.2661 16.9242 32.5984 16.5623 33.0638C16.2004 33.5292 16.003 34.1013 16.0008 34.6908V35.3575H8.33373C7.71486 35.3575 7.12134 35.6034 6.68373 36.041C6.24613 36.4786 6.00028 37.0721 6.00028 37.691C6.00028 38.3098 6.24613 38.9034 6.68373 39.341C7.12134 39.7786 7.71486 40.0244 8.33373 40.0244H31.6682C32.287 40.0244 32.8805 39.7786 33.3181 39.341C33.7558 38.9034 34.0016 38.3098 34.0016 37.691C34.0016 37.0721 33.7558 36.4786 33.3181 36.041C32.8805 35.6034 32.287 35.3575 31.6682 35.3575H24.0011V34.6908C23.9989 34.1013 23.8014 33.5292 23.4396 33.0638C23.0777 32.5984 22.5718 32.2661 22.001 32.1187V8.89962C22.6943 8.56925 23.2955 8.07309 23.7513 7.45502C24.2072 6.83696 24.5036 6.11606 24.6145 5.35612H30.1241C30.238 5.67543 30.4314 5.96042 30.6861 6.18416L28.8194 13.3565H28.668C28.4912 13.3565 28.3217 13.4268 28.1967 13.5518L24.1965 17.552C24.0714 17.677 24.0012 17.8466 24.0011 18.0234V30.0239C24.0011 30.5544 24.2119 31.0631 24.5869 31.4382C24.962 31.8133 25.4708 32.024 26.0012 32.024H38.0018C38.5322 32.024 39.041 31.8133 39.4161 31.4382C39.7912 31.0631 40.0019 30.5544 40.0019 30.0239V15.3566C40.0019 14.8261 39.7912 14.3174 39.4161 13.9423C39.041 13.5672 38.5322 13.3565 38.0018 13.3565ZM32.0015 4.02272C32.1334 4.02272 32.2623 4.06182 32.3719 4.13508C32.4815 4.20834 32.567 4.31246 32.6175 4.43429C32.6679 4.55611 32.6811 4.69016 32.6554 4.81949C32.6297 4.94881 32.5662 5.06761 32.4729 5.16085C32.3797 5.25409 32.2609 5.31758 32.1316 5.34331C32.0022 5.36903 31.8682 5.35583 31.7464 5.30537C31.6245 5.25491 31.5204 5.16945 31.4472 5.05982C31.3739 4.95018 31.3348 4.82128 31.3348 4.68942C31.3348 4.5126 31.405 4.34302 31.5301 4.21799C31.6551 4.09296 31.8247 4.02272 32.0015 4.02272ZM8.00038 4.02272C8.13224 4.02272 8.26114 4.06182 8.37077 4.13508C8.48041 4.20834 8.56586 4.31246 8.61633 4.43429C8.66679 4.55611 8.67999 4.69016 8.65426 4.81949C8.62854 4.94881 8.56504 5.06761 8.4718 5.16085C8.37856 5.25409 8.25977 5.31758 8.13044 5.34331C8.00112 5.36903 7.86706 5.35583 7.74524 5.30537C7.62342 5.25491 7.5193 5.16945 7.44604 5.05982C7.37278 4.95018 7.33368 4.82128 7.33368 4.68942C7.33368 4.5126 7.40392 4.34302 7.52895 4.21799C7.65398 4.09296 7.82356 4.02272 8.00038 4.02272ZM4.00019 15.6326V16.69C4.00019 16.8668 3.92995 17.0364 3.80492 17.1614C3.67989 17.2864 3.51031 17.3567 3.33349 17.3567H2.27611L4.00019 15.6326ZM14.6674 15.3566V30.0239C14.6674 30.2008 14.5971 30.3703 14.4721 30.4954C14.3471 30.6204 14.1775 30.6906 14.0007 30.6906H2.00009C1.82327 30.6906 1.6537 30.6204 1.52867 30.4954C1.40364 30.3703 1.3334 30.2008 1.3334 30.0239V18.6901H3.33349C3.86395 18.6901 4.37268 18.4794 4.74777 18.1043C5.12286 17.7292 5.33358 17.2204 5.33358 16.69V14.6899H14.0007C14.1775 14.6899 14.3471 14.7601 14.4721 14.8852C14.5971 15.0102 14.6674 15.1798 14.6674 15.3566ZM9.80446 13.3565H6.19629L7.93371 6.68285C7.95637 6.68285 7.97771 6.68951 8.00038 6.68951C8.02304 6.68951 8.04505 6.68351 8.06705 6.68285L9.80446 13.3565ZM32.6682 37.691C32.6682 37.9562 32.5628 38.2106 32.3753 38.3981C32.1878 38.5857 31.9334 38.691 31.6682 38.691H8.33373C8.0685 38.691 7.81413 38.5857 7.62659 38.3981C7.43904 38.2106 7.33368 37.9562 7.33368 37.691C7.33368 37.4257 7.43904 37.1714 7.62659 36.9838C7.81413 36.7963 8.0685 36.6909 8.33373 36.6909H31.6682C31.9334 36.6909 32.1878 36.7963 32.3753 36.9838C32.5628 37.1714 32.6682 37.4257 32.6682 37.691ZM22.6677 34.6908V35.3575H17.3341V34.6908C17.3341 34.3372 17.4746 33.998 17.7247 33.748C17.9748 33.4979 18.3139 33.3574 18.6675 33.3574H21.3343C21.688 33.3574 22.0271 33.4979 22.2772 33.748C22.5273 33.998 22.6677 34.3372 22.6677 34.6908ZM20.6676 32.024H19.3342V9.30297C19.7759 9.37408 20.226 9.37408 20.6676 9.30297V32.024ZM20.0009 8.02291C19.3416 8.02291 18.6971 7.8274 18.149 7.46112C17.6008 7.09483 17.1735 6.57421 16.9212 5.96509C16.6689 5.35598 16.6029 4.68572 16.7315 4.03909C16.8601 3.39245 17.1776 2.79848 17.6438 2.33229C18.11 1.86609 18.704 1.5486 19.3506 1.41998C19.9972 1.29136 20.6675 1.35737 21.2766 1.60968C21.8857 1.86198 22.4063 2.28924 22.7726 2.83743C23.1389 3.38562 23.3344 4.03012 23.3344 4.68942C23.3334 5.57319 22.9818 6.42046 22.3569 7.04538C21.732 7.67031 20.8847 8.02185 20.0009 8.02291ZM31.9348 6.68285C31.9575 6.68285 31.9788 6.68951 32.0015 6.68951C32.0242 6.68951 32.0462 6.68351 32.0682 6.68285L33.8056 13.3565H30.1974L31.9348 6.68285ZM28.0013 15.6326V16.69C28.0013 16.8668 27.9311 17.0364 27.806 17.1614C27.681 17.2864 27.5114 17.3567 27.3346 17.3567H26.2772L28.0013 15.6326ZM38.6685 30.0239C38.6685 30.2008 38.5982 30.3703 38.4732 30.4954C38.3482 30.6204 38.1786 30.6906 38.0018 30.6906H26.0012C25.8244 30.6906 25.6548 30.6204 25.5298 30.4954C25.4048 30.3703 25.3345 30.2008 25.3345 30.0239V18.6901H27.3346C27.8651 18.6901 28.3738 18.4794 28.7489 18.1043C29.124 17.7292 29.3347 17.2204 29.3347 16.69V14.6899H38.0018C38.1786 14.6899 38.3482 14.7601 38.4732 14.8852C38.5982 15.0102 38.6685 15.1798 38.6685 15.3566V30.0239Z" fill="#EED26E"/>
<path d="M4.6667 20.0234C4.48988 20.0234 4.3203 20.0937 4.19527 20.2187C4.07024 20.3437 4 20.5133 4 20.6901C4 20.867 4.07024 21.0365 4.19527 21.1616C4.3203 21.2866 4.48988 21.3568 4.6667 21.3568H6.66679C6.84361 21.3568 7.01319 21.2866 7.13822 21.1616C7.26325 21.0365 7.33349 20.867 7.33349 20.6901C7.33349 20.5133 7.26325 20.3437 7.13822 20.2187C7.01319 20.0937 6.84361 20.0234 6.66679 20.0234H4.6667Z" fill="#EED26E"/>
<path d="M6.66679 25.3569H4.6667C4.48988 25.3569 4.3203 25.4272 4.19527 25.5522C4.07024 25.6772 4 25.8468 4 26.0236C4 26.2005 4.07024 26.37 4.19527 26.4951C4.3203 26.6201 4.48988 26.6903 4.6667 26.6903H6.66679C6.84361 26.6903 7.01319 26.6201 7.13822 26.4951C7.26325 26.37 7.33349 26.2005 7.33349 26.0236C7.33349 25.8468 7.26325 25.6772 7.13822 25.5522C7.01319 25.4272 6.84361 25.3569 6.66679 25.3569Z" fill="#EED26E"/>
<path d="M9.33369 21.3568H10.6671C10.8439 21.3568 11.0135 21.2866 11.1385 21.1616C11.2635 21.0365 11.3338 20.867 11.3338 20.6901C11.3338 20.5133 11.2635 20.3437 11.1385 20.2187C11.0135 20.0937 10.8439 20.0234 10.6671 20.0234H9.33369C9.15687 20.0234 8.98729 20.0937 8.86226 20.2187C8.73723 20.3437 8.66699 20.5133 8.66699 20.6901C8.66699 20.867 8.73723 21.0365 8.86226 21.1616C8.98729 21.2866 9.15687 21.3568 9.33369 21.3568Z" fill="#EED26E"/>
<path d="M4 23.3571C4 23.5339 4.07024 23.7035 4.19527 23.8286C4.3203 23.9536 4.48988 24.0238 4.6667 24.0238H8.00019C8.17701 24.0238 8.34658 23.9536 8.47161 23.8286C8.59664 23.7035 8.66689 23.5339 8.66689 23.3571C8.66689 23.1803 8.59664 23.0107 8.47161 22.8857C8.34658 22.7607 8.17701 22.6904 8.00019 22.6904H4.6667C4.48988 22.6904 4.3203 22.7607 4.19527 22.8857C4.07024 23.0107 4 23.1803 4 23.3571Z" fill="#EED26E"/>
<path d="M28.6682 21.3568H30.6683C30.8451 21.3568 31.0147 21.2866 31.1397 21.1616C31.2647 21.0365 31.335 20.867 31.335 20.6901C31.335 20.5133 31.2647 20.3437 31.1397 20.2187C31.0147 20.0937 30.8451 20.0234 30.6683 20.0234H28.6682C28.4913 20.0234 28.3218 20.0937 28.1967 20.2187C28.0717 20.3437 28.0015 20.5133 28.0015 20.6901C28.0015 20.867 28.0717 21.0365 28.1967 21.1616C28.3218 21.2866 28.4913 21.3568 28.6682 21.3568Z" fill="#EED26E"/>
<path d="M30.6683 25.3569H28.6682C28.4913 25.3569 28.3218 25.4272 28.1967 25.5522C28.0717 25.6772 28.0015 25.8468 28.0015 26.0236C28.0015 26.2005 28.0717 26.37 28.1967 26.4951C28.3218 26.6201 28.4913 26.6903 28.6682 26.6903H30.6683C30.8451 26.6903 31.0147 26.6201 31.1397 26.4951C31.2647 26.37 31.335 26.2005 31.335 26.0236C31.335 25.8468 31.2647 25.6772 31.1397 25.5522C31.0147 25.4272 30.8451 25.3569 30.6683 25.3569Z" fill="#EED26E"/>
<path d="M34.6681 20.0234H33.3347C33.1578 20.0234 32.9883 20.0937 32.8632 20.2187C32.7382 20.3437 32.668 20.5133 32.668 20.6901C32.668 20.867 32.7382 21.0365 32.8632 21.1616C32.9883 21.2866 33.1578 21.3568 33.3347 21.3568H34.6681C34.8449 21.3568 35.0145 21.2866 35.1395 21.1616C35.2645 21.0365 35.3348 20.867 35.3348 20.6901C35.3348 20.5133 35.2645 20.3437 35.1395 20.2187C35.0145 20.0937 34.8449 20.0234 34.6681 20.0234Z" fill="#EED26E"/>
<path d="M32.0017 22.6904H28.6682C28.4913 22.6904 28.3218 22.7607 28.1967 22.8857C28.0717 23.0107 28.0015 23.1803 28.0015 23.3571C28.0015 23.5339 28.0717 23.7035 28.1967 23.8286C28.3218 23.9536 28.4913 24.0238 28.6682 24.0238H32.0017C32.1785 24.0238 32.3481 23.9536 32.4731 23.8286C32.5981 23.7035 32.6684 23.5339 32.6684 23.3571C32.6684 23.1803 32.5981 23.0107 32.4731 22.8857C32.3481 22.7607 32.1785 22.6904 32.0017 22.6904Z" fill="#EED26E"/>
</svg>
