<svg width="159" height="85" viewBox="0 0 159 85" fill="none" xmlns="http://www.w3.org/2000/svg">
<path d="M155.211 79.6647H142.53V71.5717H145.172C145.876 71.5717 146.492 70.3961 146.492 69.6275V65.2419H150.411C151.116 65.2419 151.732 64.0663 151.732 63.2977V43.0876C151.732 42.3642 151.16 42.319 150.411 42.319H146.404C146.448 42.319 146.492 41.46 146.492 41.2791V37.6621C146.492 36.9387 145.92 36.8935 145.172 36.8935H100.039V4.02379C100.039 3.61688 99.8631 3.25517 99.5548 2.9839C99.2466 2.71262 98.8503 2.62219 98.4541 2.71262L43.7669 14.1062C43.1504 14.2419 42.7101 15.0557 42.7101 15.6887L42.6661 18.0397H26.0662C25.3617 18.0397 24.7453 18.085 24.7453 18.8084V24.3243H20.3421C19.6376 24.3243 19.0212 24.3695 19.0212 25.0929V34.9945C19.0212 35.7179 19.5936 36.9387 20.3421 36.9387H24.7453V39.6514H20.3421C19.6376 39.6514 19.0212 39.6967 19.0212 40.4201V50.3217C19.0212 51.0451 19.5936 52.2658 20.3421 52.2658H24.7453V54.9786H20.3421C19.6376 54.9786 19.0212 55.0238 19.0212 55.7472V65.6488C19.0212 66.3722 19.5936 67.5929 20.3421 67.5929H24.7453V79.71H11.6239V76.5451H15.4106C16.1151 76.5451 16.7315 75.6408 16.7315 74.9174C16.7315 74.7365 16.6875 74.4653 16.6435 74.3296L12.0642 54.6169C11.9321 54.0291 11.4037 53.5318 10.7873 53.5318C10.1708 53.5318 9.64244 53.9387 9.51035 54.5717L4.93107 74.3296C4.84301 74.7365 4.93107 75.46 5.19526 75.7764C5.45945 76.0929 5.8117 76.5903 6.20798 76.5903H10.3029V79.7552H3.3019C2.5974 79.7552 1.98096 80.3429 1.98096 81.1115C1.98096 81.8349 2.55337 82.4679 3.3019 82.4679H155.211C155.915 82.4679 156.532 81.8802 156.532 81.1115C156.532 80.2525 155.959 79.6647 155.211 79.6647ZM7.88118 73.7419L10.8313 61.0371L13.7814 73.7419H7.88118ZM149.927 62.4387H142.75L145.172 57.9174H149.927V62.4387ZM149.927 48.4679V50.2764H149.266L149.927 48.4679ZM149.927 51.5876V56.561H145.876L148.518 51.5876H149.927ZM142.882 56.561H138.082L135.441 51.5876H145.568L142.882 56.561ZM142.177 57.9174L140.504 61.0371L138.831 57.9174H142.177ZM135.088 56.561H124.477L127.119 51.5876H132.402L135.088 56.561ZM116.639 56.561L113.997 51.5876H124.124L121.483 56.561H116.639ZM120.69 57.9174L119.017 61.0371L117.344 57.9174H120.69ZM95.4599 56.561L92.818 51.5876H102.945L100.303 56.561H95.4599ZM99.5548 57.9174L97.8816 61.0371L96.2084 57.9174H99.5548ZM88.2828 51.5876H89.7798L92.4217 56.561H88.2387V51.5876H88.2828ZM105.939 51.5876H110.959L113.601 56.561H103.253L105.939 51.5876ZM108.449 46.9307L110.21 50.2764H106.644L108.449 46.9307ZM127.823 50.2312L129.76 46.6142L131.698 50.2312H127.823ZM124.829 50.2312H113.249L110.343 44.8057H127.735L124.829 50.2312ZM103.65 50.2312H92.0695L89.1634 44.8057H106.556L103.65 50.2312ZM89.0753 50.2312H88.2828V48.1967L89.0753 50.2312ZM88.2828 57.9174H93.1703L95.592 62.4387H88.2828V57.9174ZM102.549 57.9174H114.349L116.771 62.4387H100.171L102.549 57.9174ZM123.728 57.9174H135.793L138.215 62.4387H121.306L123.728 57.9174ZM149.178 44.8057L146.272 50.2312H134.692L131.786 44.8057H149.178ZM97.9697 5.19932V36.6674H87.4021V7.5956C87.4021 7.55039 87.4021 7.45996 87.3581 7.41475L97.9697 5.19932ZM86.0812 36.6674H81.678C80.9295 36.6674 80.3571 36.7126 80.3571 37.436V71.0291H75.9539V9.81102L86.0812 7.68602V36.6674ZM74.633 71.0291H65.3864V67.4121H69.7895C70.5381 67.4121 71.1105 66.2365 71.1105 65.4679V55.5211C71.1105 54.7525 70.494 54.7525 69.7895 54.7525H65.3864V52.0397H69.7895C70.5381 52.0397 71.1105 50.8642 71.1105 50.0956V40.1488C71.1105 39.3802 70.494 39.3802 69.7895 39.3802H65.3864V36.6674H69.7895C70.5381 36.6674 71.1105 35.4919 71.1105 34.7233V24.7764C71.1105 24.0078 70.494 24.0078 69.7895 24.0078H65.3864V18.4467C65.3864 17.8589 64.9461 17.3616 64.5057 17.1807V12.2073L74.633 10.0823V71.0291ZM27.5192 64.6993V57.4653H62.7445V64.6993H27.5192ZM65.3864 57.4653H68.4686V64.6993H65.3864V57.4653ZM27.5192 42.0929H62.7445V49.327H27.5192V42.0929ZM65.3864 42.0929H68.4686V49.327H65.3864V42.0929ZM27.5192 26.7206H62.7445V33.9546H27.5192V26.7206ZM65.3864 26.7206H68.4686V33.9546H65.3864V26.7206ZM45.5722 16.4573L63.1848 12.4786V17.678H45.5281L45.5722 16.4573ZM27.5192 20.3908H43.987C44.0311 20.3908 44.1191 20.3908 44.1632 20.436C44.2512 20.436 44.3393 20.3908 44.3833 20.3908H62.7004V24.0078H27.4752V20.3908H27.5192ZM21.7951 33.9546V26.7206H24.8774V33.9546H21.7951ZM27.5192 36.6674H62.7445V39.3802H27.5192V36.6674ZM21.7951 49.327V42.0929H24.8774V49.327H21.7951ZM27.5192 52.0397H62.7445V54.7525H27.5192V52.0397ZM21.7951 64.6993V57.4653H24.8774V64.6993H21.7951ZM27.5192 67.4121H30.1611V79.6195H27.5192V67.4121ZM31.4821 67.4121H34.124V79.6195H31.4821V67.4121ZM35.4449 67.4121H38.0868V79.6195H35.4449V67.4121ZM39.4078 67.4121H42.0497V79.6195H39.4078V67.4121ZM43.3706 67.4121H62.7445V71.7977V79.6195H43.3706V67.4121ZM65.3864 73.7419H80.3571V79.6195H65.3864V73.7419ZM82.999 39.3802H144.643V41.053C144.643 41.2339 144.687 42.0929 144.731 42.0929H86.9618C86.2133 42.0929 85.6409 42.1381 85.6409 42.8616V63.2073C85.6409 63.9759 86.2133 65.1514 86.9618 65.1514H97.4854C97.6175 65.1514 97.7496 65.2419 97.8816 65.2419C98.0137 65.2419 98.1458 65.1514 98.2779 65.1514H118.62C118.753 65.1514 118.885 65.2419 119.017 65.2419C119.149 65.2419 119.281 65.1514 119.413 65.1514H140.064C140.196 65.1514 140.328 65.2419 140.46 65.2419C140.592 65.2419 140.724 65.1514 140.856 65.1514H144.643V68.7685H109.242C109.022 68.7685 108.845 68.5424 108.669 68.6328L88.3708 79.2126C88.2387 79.303 88.1066 79.6195 88.0186 79.6195H82.999V39.3802V39.3802ZM109.594 71.4812H114.746V79.6195H93.7867L109.594 71.4812ZM116.023 71.4812H123.508V79.6195H116.023V71.4812ZM124.829 71.4812H132.314V79.6195H124.829V71.4812ZM133.635 71.4812H140.68V79.6195H133.635V71.4812Z" fill="#364440"/>
</svg>
