<svg width="40" height="40" viewBox="0 0 40 40" fill="none" xmlns="http://www.w3.org/2000/svg">
<path d="M26.0009 11.3349C26.0009 8.02127 23.3147 5.33496 20.001 5.33496C16.6872 5.33496 14.001 8.0212 14.001 11.3349C14.001 14.6487 16.6872 17.3349 20.001 17.3349C23.3132 17.3312 25.9973 14.6471 26.0009 11.3349ZM15.3344 11.3349C15.3344 8.7576 17.4237 6.66834 20.001 6.66834C22.5782 6.66834 24.6675 8.75767 24.6675 11.3349C24.6675 13.9122 22.5782 16.0015 20.001 16.0015C17.4251 15.9982 15.3377 13.9109 15.3344 11.3349Z" fill="#EED26E"/>
<path d="M20.0006 33.3348C20.3688 33.3348 20.6673 33.0363 20.6673 32.6681C20.6673 32.2999 20.3688 32.0015 20.0006 32.0015C19.6325 32.0015 19.334 32.2999 19.334 32.6681C19.334 33.0363 19.6325 33.3348 20.0006 33.3348Z" fill="#EED26E"/>
<path d="M6.00113 33.3348C6.36931 33.3348 6.66779 33.0363 6.66779 32.6681C6.66779 32.2999 6.36931 32.0015 6.00113 32.0015C5.63295 32.0015 5.33447 32.2999 5.33447 32.6681C5.33447 33.0363 5.63295 33.3348 6.00113 33.3348Z" fill="#EED26E"/>
<path d="M34.0006 33.3348C34.3688 33.3348 34.6673 33.0363 34.6673 32.6681C34.6673 32.2999 34.3688 32.0015 34.0006 32.0015C33.6325 32.0015 33.334 32.2999 33.334 32.6681C33.334 33.0363 33.6325 33.3348 34.0006 33.3348Z" fill="#EED26E"/>
<path d="M7.3343 24.6681C6.22977 24.6681 5.33433 25.5635 5.33433 26.6681V28.9654L0.314328 32.1027C0.164406 32.1964 0.0578101 32.3458 0.0180512 32.5181C-0.0217078 32.6904 0.00860675 32.8714 0.102324 33.0214C0.225036 33.2139 0.439417 33.3284 0.667668 33.3234V38.0014C0.667668 39.1059 1.5631 40.0013 2.66764 40.0013H9.33427C10.4388 40.0013 11.3342 39.1059 11.3342 38.0014V33.3348C11.6316 33.3348 11.8931 33.1378 11.9751 32.8519C12.057 32.566 11.9398 32.2604 11.6876 32.1028L6.66764 28.9654V26.6681C6.66764 26.2999 6.9661 26.0015 7.3343 26.0015H19.3342V28.9654L14.3142 32.1028C14.1643 32.1965 14.0577 32.3459 14.018 32.5182C13.9782 32.6905 14.0085 32.8715 14.1022 33.0215C14.2255 33.2134 14.4395 33.3277 14.6676 33.3235V38.0014C14.6676 39.106 15.563 40.0014 16.6676 40.0014H23.3342C24.4387 40.0014 25.3342 39.106 25.3342 38.0014V33.3348C25.6316 33.3348 25.893 33.1378 25.975 32.852C26.057 32.5661 25.9397 32.2605 25.6875 32.1028L20.6676 28.9655V26.0015H32.6674C33.0356 26.0015 33.3341 26.3 33.3341 26.6682V28.9655L28.3142 32.1028C28.1642 32.1966 28.0576 32.3459 28.0179 32.5183C27.9781 32.6906 28.0084 32.8715 28.1022 33.0215C28.2251 33.2138 28.4393 33.3282 28.6675 33.3235V38.0015C28.6675 39.106 29.5629 40.0015 30.6675 40.0015H37.3341C38.4386 40.0015 39.3341 39.106 39.3341 38.0015V33.3349C39.6315 33.3349 39.8929 33.1379 39.9749 32.852C40.0569 32.5661 39.9396 32.2606 39.6874 32.1029L34.6675 28.9656V26.6683C34.6675 25.5637 33.772 24.6683 32.6675 24.6683H20.6675V22.6428C20.8008 22.6335 20.9342 22.6248 21.0755 22.6109C21.6629 22.5391 22.1317 22.0872 22.2248 21.5029L22.4142 20.3509C23.203 20.1386 23.9606 19.8237 24.6675 19.4142L25.6195 20.0962C26.1047 20.4474 26.7646 20.4319 27.2328 20.0582C27.5375 19.8009 27.7861 19.5743 28.0135 19.3469C28.2714 19.0911 28.5161 18.8223 28.7468 18.5416C29.1041 18.075 29.1124 17.4293 28.7674 16.9536L28.0801 16.0016C28.4894 15.2954 28.8044 14.5385 29.0168 13.7503L30.1667 13.5616C30.7544 13.4663 31.2077 12.9929 31.2774 12.4016C31.3534 11.6896 31.3534 10.9716 31.2774 10.2596C31.2057 9.67229 30.7537 9.20344 30.1694 9.11032L29.0174 8.92097C28.8049 8.13233 28.4898 7.37492 28.0801 6.66831L28.7621 5.71634C29.1111 5.2354 29.0996 4.58149 28.7341 4.11304C28.5095 3.8371 28.2698 3.57385 28.0161 3.32439C27.7602 3.06649 27.4914 2.82173 27.2108 2.5911C26.7447 2.23228 26.098 2.22382 25.6228 2.57043L24.6674 3.25577C23.9606 2.8463 23.203 2.53139 22.4141 2.31913L22.2254 1.16915C22.1316 0.581487 21.6586 0.127759 21.0675 0.058478C20.3555 -0.0175396 19.6375 -0.0175396 18.9255 0.058478C18.3382 0.130203 17.8693 0.582148 17.7762 1.16645L17.5875 2.31913C16.7987 2.53139 16.0411 2.8463 15.3342 3.25577L14.3842 2.5738C13.9021 2.22475 13.247 2.23756 12.7788 2.6051C12.5182 2.81843 12.2529 3.06041 11.9969 3.31706C11.7374 3.57094 11.4925 3.83935 11.2636 4.12103C10.9009 4.5877 10.89 5.23785 11.2369 5.71634L11.9216 6.66831C11.5122 7.37453 11.1973 8.13147 10.9849 8.91965L9.83495 9.10827C9.24663 9.20232 8.7927 9.67639 8.72428 10.2683C8.64786 10.9809 8.64786 11.6997 8.72428 12.4122C8.79673 12.9986 9.24821 13.4663 9.83159 13.5596L10.9836 13.7489C11.1963 14.5376 11.5117 15.295 11.9216 16.0016L11.2449 16.9462C10.892 17.4291 10.9026 18.0876 11.271 18.5589C11.4843 18.8196 11.7263 19.0849 11.9889 19.3475C12.2176 19.5762 12.4662 19.8028 12.7943 20.0808C13.2604 20.4392 13.9069 20.4476 14.3823 20.1015L15.3342 19.4142C16.0405 19.8235 16.7974 20.1384 17.5856 20.3508L17.7743 21.5008C17.8683 22.0891 18.3424 22.543 18.9343 22.6115C19.0722 22.6255 19.201 22.6341 19.3342 22.6428V24.6681H7.3343ZM5.33433 38.668V36.0014H6.66764V38.668H5.33433ZM9.33427 38.668H8.00096V36.0014C8.00096 35.265 7.40398 34.6681 6.66764 34.6681H5.33433C4.59793 34.6681 4.00102 35.2651 4.00102 36.0014V38.668H2.66764C2.29944 38.668 2.00098 38.3696 2.00098 38.0014V32.6208L6.00092 30.1214L10.0009 32.6208V38.0014C10.0009 38.3695 9.70247 38.668 9.33427 38.668ZM19.3342 38.668V36.0014H20.6675V38.668H19.3342ZM23.3341 38.668H22.0008V36.0014C22.0008 35.265 21.4038 34.6681 20.6675 34.6681H19.3342C18.5978 34.6681 18.0009 35.2651 18.0009 36.0014V38.668H16.6676C16.2994 38.668 16.0009 38.3696 16.0009 38.0014V32.6208L20.0008 30.1214L24.0008 32.6208V38.0014C24.0008 38.3695 23.7023 38.668 23.3341 38.668ZM33.334 38.668V36.0014H34.6674V38.668H33.334ZM37.334 38.668H36.0007V36.0014C36.0007 35.265 35.4037 34.6681 34.6674 34.6681H33.334C32.5976 34.6681 32.0007 35.2651 32.0007 36.0014V38.668H30.6674C30.2992 38.668 30.0008 38.3696 30.0008 38.0014V32.6208L34.0007 30.1214L38.0006 32.6208V38.0014C38.0007 38.3695 37.7022 38.668 37.334 38.668ZM18.8315 19.7001C18.7874 19.4307 18.5835 19.2154 18.3168 19.1568C17.3747 18.9517 16.4772 18.5783 15.6675 18.0548C15.4377 17.906 15.1402 17.9129 14.9175 18.0721L13.6282 19.0388C13.3895 18.8388 13.1568 18.6301 12.9295 18.4028C12.7142 18.1899 12.511 17.9651 12.3208 17.7294L13.2615 16.4161C13.4205 16.1943 13.4281 15.8979 13.2808 15.6681C12.7575 14.859 12.3842 13.9622 12.1789 13.0208C12.1202 12.7541 11.9049 12.5503 11.6355 12.5061L10.0509 12.2681C10.0182 11.958 10.0015 11.6465 10.0009 11.3347C10.0012 11.0312 10.0172 10.7279 10.0489 10.4261L11.6355 10.1654C11.9049 10.1213 12.1202 9.91732 12.1789 9.6507C12.384 8.70857 12.7574 7.81108 13.2808 7.00137C13.4296 6.77154 13.4228 6.47407 13.2635 6.25137L12.3036 4.95471C12.5009 4.71431 12.7115 4.48507 12.9342 4.26804C13.1471 4.05274 13.3719 3.84952 13.6076 3.65937L14.9209 4.60005C15.1434 4.75697 15.439 4.76279 15.6675 4.61471C16.4766 4.09137 17.3734 3.71809 18.3148 3.51275C18.5814 3.45411 18.7853 3.2388 18.8295 2.9694L19.0675 1.38472C19.6795 1.31941 20.2968 1.31941 20.9088 1.38472L21.1695 2.97139C21.2136 3.24078 21.4176 3.45609 21.6842 3.51474C22.6265 3.71921 23.5241 4.09184 24.3342 4.61471C24.564 4.76351 24.8615 4.75664 25.0842 4.59741L26.3808 3.63745C26.6237 3.83763 26.8565 4.0499 27.0781 4.27346C27.2919 4.48289 27.4923 4.70559 27.6782 4.94012L26.7375 6.25342C26.5794 6.47586 26.5728 6.7722 26.7208 7.00144C27.2441 7.81056 27.6175 8.70731 27.8228 9.64878C27.8814 9.9154 28.0967 10.1193 28.3661 10.1635L29.9508 10.4001C29.9836 10.7106 30.0003 11.0226 30.0008 11.3348C30.0005 11.6383 29.9845 11.9416 29.9528 12.2434L28.3661 12.5041C28.0967 12.5482 27.8814 12.7522 27.8228 13.0188C27.6177 13.9609 27.2443 14.8584 26.7208 15.6681C26.572 15.8979 26.5789 16.1954 26.7381 16.4181L27.6981 17.7148C27.5141 17.9401 27.3021 18.1721 27.0688 18.4061C26.8354 18.6401 26.6101 18.8394 26.3954 19.0148L25.0821 18.0741C24.8603 17.9152 24.5639 17.9075 24.3341 18.0548C23.525 18.5781 22.6282 18.9514 21.6868 19.1567C21.4201 19.2154 21.2163 19.4307 21.1721 19.7001L20.9341 21.2848C20.322 21.3501 19.7048 21.3501 19.0927 21.2848L18.8315 19.7001Z" fill="#EED26E"/>
</svg>
