<svg width="110" height="85" viewBox="0 0 110 85" fill="none" xmlns="http://www.w3.org/2000/svg">
<path d="M107.58 84.0318C108.097 84.0318 108.492 83.6386 108.492 83.1243C108.492 82.6101 108.097 82.2169 107.58 82.2169H104.631V81.0371C105.543 80.8556 106.759 80.0994 106.759 77.861C106.759 77.0745 106.668 75.0781 106.425 73.2934C106.151 71.2667 105.574 68.9072 103.932 68.9072H103.871C102.199 68.9072 101.683 71.2667 101.379 73.2934C101.135 75.0478 101.105 77.0443 101.105 77.8307C101.105 80.3414 102.503 81.0069 103.719 81.0674V82.2169H98.5516V81.0371C99.4636 80.8556 100.68 80.0994 100.68 77.861C100.68 77.0745 100.588 75.0781 100.345 73.2934C100.072 71.2667 99.494 68.9072 97.8525 68.9072H97.7917C96.1198 68.9072 95.603 71.2667 95.299 73.2934C95.0558 75.0478 95.0254 77.0443 95.0254 77.8307C95.0254 80.3414 96.4237 81.0069 97.6397 81.0674V82.2169H92.472V81.0371C93.3839 80.8556 94.5998 80.0994 94.5998 77.861C94.5998 77.0745 94.5086 75.0781 94.2655 73.2934C93.9919 71.2667 93.4143 68.9072 91.7728 68.9072H91.712C90.0401 68.9072 89.5233 71.2667 89.2193 73.2934C88.9761 75.0478 88.9457 77.0443 88.9457 77.8307C88.9457 80.3414 90.3441 81.0069 91.56 81.0674V82.2169H88.581C86.9394 80.0994 77.2727 65.9126 77.212 6.89657C78.4279 6.50334 79.3398 5.35387 79.3398 3.99266C79.3398 2.29871 77.9719 0.9375 76.2696 0.9375C74.5673 0.9375 73.2298 2.32896 73.2298 3.99266C73.2298 5.38412 74.2633 6.56383 75.4792 6.92682V71.3877L74.2633 70.2987V17.6048C74.2633 17.3628 74.1417 17.0603 73.9593 16.909C73.7769 16.7275 73.5033 16.5763 73.2906 16.5763L63.9279 16.6368C63.4719 16.6368 63.1071 16.9998 63.0159 17.4535L57.1794 55.2951L20.0326 22.5354C19.759 22.2934 19.4246 22.2329 19.0902 22.3841C18.7558 22.5354 18.6038 22.8681 18.6038 23.2008V82.1866H14.3481V81.0069C15.26 80.8254 16.4759 80.0692 16.4759 77.8307C16.4759 77.0443 16.3847 75.0478 16.1416 73.2631C15.868 71.2364 15.2904 68.877 13.6489 68.877H13.5881C11.9162 68.877 11.3994 71.2364 11.0954 73.2631C10.8522 75.0176 10.8218 77.014 10.8218 77.8005C10.8218 80.3112 12.2202 80.9766 13.4361 81.0371V82.1866H8.26837V81.0069C9.18033 80.8254 10.3963 80.0692 10.3963 77.8307C10.3963 77.0443 10.3051 75.0478 10.0619 73.2631C9.78829 71.2364 9.21072 68.877 7.56921 68.877H7.50841C5.8365 68.877 5.31973 71.2364 5.01575 73.2631C4.77256 75.0176 4.74216 77.014 4.74216 77.8005C4.74216 80.3112 6.14049 80.9766 7.35642 81.0371V82.1866H2.0975C1.58073 82.1866 1.18555 82.5798 1.18555 83.0941C1.18555 83.6083 1.58073 84.0016 2.0975 84.0016H107.58V84.0318ZM7.47802 79.1919C6.87005 79.1919 6.50527 79.1315 6.50527 77.8005C6.50527 74.8058 6.96124 71.6297 7.50841 70.8734C8.02519 71.6599 8.51156 74.8058 8.51156 77.8005C8.51156 79.1315 8.14678 79.1919 7.53881 79.1919H7.47802ZM13.5577 79.1919C12.9497 79.1919 12.5849 79.1315 12.5849 77.8005C12.5849 74.8058 13.0409 71.6297 13.5881 70.8734C14.1049 71.6599 14.5912 74.8058 14.5912 77.8005C14.5912 79.1315 14.2265 79.1919 13.6185 79.1919H13.5577ZM24.9875 82.2169C25.4131 75.562 30.976 70.2685 37.7852 70.2685C44.5945 70.2685 50.1574 75.562 50.5829 82.2169H24.9875ZM52.954 82.2169H52.4069C51.9813 74.6546 45.5976 68.4535 37.7852 68.4535C29.9728 68.4535 23.5892 74.6546 23.1636 82.2169H20.3973V25.2578L56.845 57.4126L52.954 82.2169ZM68.1228 82.2169H54.8083L55.5987 77.0745H68.1228V82.2169V82.2169ZM68.1228 76.167H55.7203L56.3586 71.9322H68.0924V76.167H68.1228ZM68.1228 67.3948V71.0247H56.541L57.1794 66.7898H67.4541H68.1228V67.3948V67.3948ZM68.1228 64.9749V65.8823H66.4205H57.3314L57.9698 61.6475H61.6176H64.3534H68.1228V64.9749ZM68.1228 60.74H63.3503H60.6144H58.1218L58.4257 58.8343L58.7601 56.6866L58.7905 56.5051H68.1532V60.74H68.1228ZM68.1228 55.5976H58.9121L59.5505 51.3628H68.1228V55.5976V55.5976ZM68.1228 50.4553H59.7025L60.3408 46.2204H68.1228V50.4553ZM68.1228 45.3129H60.4928L61.1312 41.0781H68.1228V45.3129ZM68.1228 40.1706H61.2832L61.9216 35.9357H68.1228V40.1706ZM68.1228 35.0282H62.0735L62.7119 30.7934H68.1228V35.0282ZM68.1228 29.8859H62.8639L63.5023 25.651H68.0924V29.8859H68.1228ZM68.1228 24.7436H63.6543L64.6574 18.482L68.1228 18.5122V24.7436V24.7436ZM72.3786 68.7258V71.1457V82.2169H69.0348V68.2115V65.7916V18.5122H72.3786V68.7258ZM75.4184 82.2169H74.2025V72.7791L75.4184 73.8681V82.2169ZM76.2088 5.26312C75.5096 5.26312 74.9625 4.71864 74.9625 4.02291C74.9625 3.32718 75.5096 2.7827 76.2088 2.7827C76.908 2.7827 77.4551 3.32718 77.4551 4.02291C77.4551 4.71864 76.908 5.26312 76.2088 5.26312ZM85.0243 79.9179C85.5107 80.9161 85.9363 81.6421 86.3011 82.2471H84.9027H77.2424V75.4713V73.0514V45.9784C79.3702 65.3681 82.6837 75.1688 85.0243 79.9179ZM91.6816 79.1919C91.0736 79.1919 90.7088 79.1315 90.7088 77.8005C90.7088 74.8058 91.1648 71.6297 91.712 70.8734C92.2288 71.6599 92.7151 74.8058 92.7151 77.8005C92.7151 79.1315 92.3504 79.1919 91.7424 79.1919H91.6816ZM97.7613 79.1919C97.1533 79.1919 96.7885 79.1315 96.7885 77.8005C96.7885 74.8058 97.2445 71.6297 97.7917 70.8734C98.3084 71.6599 98.7948 74.8058 98.7948 77.8005C98.7948 79.1315 98.43 79.1919 97.8221 79.1919H97.7613ZM103.841 79.1919C103.233 79.1919 102.868 79.1315 102.868 77.8005C102.868 74.8058 103.324 71.6297 103.871 70.8734C104.388 71.6599 104.874 74.8058 104.874 77.8005C104.874 79.1315 104.51 79.1919 103.902 79.1919H103.841Z" fill="#364440"/>
</svg>
