<svg width="40" height="40" viewBox="0 0 40 40" fill="none" xmlns="http://www.w3.org/2000/svg">
<path d="M18.495 7.70187C18.495 5.1192 16.3939 3.01807 13.8112 3.01807C11.2286 3.01807 9.12744 5.1192 9.12744 7.70187C9.12744 10.2845 11.2286 12.3857 13.8112 12.3857C16.3939 12.3857 18.495 10.2845 18.495 7.70187ZM10.2997 7.70187C10.2997 5.76561 11.875 4.19023 13.8113 4.19023C15.7477 4.19023 17.323 5.76553 17.323 7.70187C17.323 9.6382 15.7476 11.2135 13.8112 11.2135C11.8749 11.2135 10.2997 9.6382 10.2997 7.70187Z" fill="#EED26E"/>
<path d="M15.1218 5.76758L13.2425 7.99492L12.5284 7.00616L11.5781 7.6925L13.1708 9.89749L16.0176 6.52347L15.1218 5.76758Z" fill="#EED26E"/>
<path d="M5.02979 14.1831H15.5695V15.3553H5.02979V14.1831Z" fill="#EED26E"/>
<path d="M5.02979 17.1528H15.5695V18.325H5.02979V17.1528Z" fill="#EED26E"/>
<path d="M5.02979 20.0391H15.5695V21.2112H5.02979V20.0391Z" fill="#EED26E"/>
<path d="M5.02979 22.9375H10.8808V24.1097H5.02979V22.9375Z" fill="#EED26E"/>
<path d="M37.7423 33.1819L34.9752 31.5537L34.3808 32.564L37.148 34.1921C37.8839 34.6252 38.1304 35.5763 37.6974 36.3121C37.2643 37.0482 36.3133 37.2943 35.5774 36.8615L27.7193 32.2379L29.29 29.5685L33.3749 31.972L33.9692 30.9618L29.8724 28.5512C30.0537 28.1415 30.092 27.6861 29.9779 27.2459C29.8442 26.7296 29.5173 26.2963 29.0576 26.0258C28.5979 25.7554 28.0603 25.68 27.5441 25.8138C27.2268 25.8961 26.9411 26.0514 26.705 26.2655V22.3929C27.1044 21.6849 27.0783 20.8474 26.705 20.1822V0H7.12134L0.91748 6.21417V21.177H2.08964V7.04274H7.95045V1.17216H25.5329V19.1383L20.7361 16.3159C19.6657 15.686 18.2827 16.0446 17.6531 17.1149C17.348 17.6334 17.2631 18.2396 17.414 18.8219C17.5308 19.2728 17.7787 19.6671 18.125 19.9639L13.901 27.1427C13.4734 26.984 13.0083 26.9588 12.5574 27.0758C11.9751 27.2267 11.4864 27.5953 11.1813 28.1138C10.7507 28.8458 10.7825 29.724 11.1878 30.4076H2.08964V22.3883H0.91748V31.5797H12.631L15.6696 33.3675H9.13238V36.0635H7.16901V40H25.1421V36.0635H23.1885V33.3675H20.2469C20.5239 32.8627 20.5974 32.2809 20.4523 31.7211C20.4399 31.6732 20.4255 31.6262 20.4102 31.5797H23.5776C23.3845 32.4079 23.7389 33.3019 24.5096 33.7554C24.8206 33.9384 25.1672 34.032 25.5188 34.032C25.6869 34.032 25.8561 34.0106 26.0231 33.9674C26.4633 33.8533 26.8427 33.5984 27.1128 33.2412L34.9829 37.8717C35.4151 38.1261 35.8895 38.247 36.3581 38.247C37.2912 38.247 38.2011 37.7673 38.7076 36.9067C39.4684 35.6136 39.0354 33.9427 37.7423 33.1819ZM6.77829 5.87057H2.9168L6.77829 2.00268V5.87057ZM18.6634 17.7092C18.8097 17.4607 19.0439 17.2839 19.3231 17.2115C19.4135 17.1881 19.505 17.1766 19.5959 17.1766C19.786 17.1766 19.9735 17.2273 20.1416 17.3262L25.2915 20.3563C25.8046 20.6582 25.9766 21.3215 25.6746 21.8347C25.3726 22.3478 24.7095 22.5196 24.1963 22.2178L19.0453 19.187C18.7973 19.0406 18.6209 18.8066 18.5487 18.5277C18.4763 18.2485 18.517 17.9579 18.6634 17.7092ZM25.5329 23.3942V26.8539L22.8568 25.284L23.9657 23.3994C24.2181 23.4925 24.4801 23.5386 24.7401 23.5386C25.0115 23.5386 25.28 23.4886 25.5329 23.3942ZM19.1171 20.5892L22.9368 22.8368L18.7493 29.9536L14.9296 27.7061L19.1171 20.5892ZM12.5748 30.1866C12.0616 29.8846 11.8897 29.2214 12.1916 28.7082C12.3379 28.4595 12.5723 28.2828 12.8515 28.2105C12.9418 28.187 13.0333 28.1755 13.1242 28.1755C13.3142 28.1755 13.5015 28.226 13.6696 28.3249L18.82 31.3553C19.0686 31.5016 19.2453 31.736 19.3177 32.0152C19.39 32.2944 19.3493 32.5851 19.203 32.8336V32.8337C19.0568 33.0823 18.8225 33.2591 18.5433 33.3314C18.264 33.4038 17.9734 33.3631 17.7247 33.2168L12.5748 30.1866ZM22.0164 34.5397V36.0635H18.3143V37.2357H23.97V38.8278H8.34117V37.2357H17.1324V36.0635H10.3045V34.5397H22.0164ZM19.8422 30.4075L20.8501 28.6946L23.7613 30.4075H19.8422ZM21.4445 27.6843L22.2625 26.2942L25.4742 28.1784L24.6538 29.5726L21.4445 27.6843ZM26.233 32.4525C26.1212 32.6424 25.9423 32.7774 25.729 32.8326C25.5158 32.8879 25.2938 32.8568 25.1039 32.7451C24.712 32.5145 24.5808 32.008 24.8114 31.6162L27.3342 27.3286C27.4459 27.1387 27.6249 27.0038 27.838 26.9485C27.907 26.9306 27.9769 26.9218 28.0463 26.9218C28.1915 26.9218 28.3346 26.9605 28.4631 27.0361C28.653 27.1478 28.788 27.3267 28.8432 27.5399C28.8985 27.7529 28.8674 27.9746 28.7561 28.1644L26.233 32.4525Z" fill="#EED26E"/>
</svg>
