<svg width="152" height="55" viewBox="0 0 152 55" fill="none" xmlns="http://www.w3.org/2000/svg">
<mask id="mask0_1282_95594" style="mask-type:luminance" maskUnits="userSpaceOnUse" x="0" y="0" width="151" height="55">
<path d="M150.6 0H0.200195V54.144H150.6V0Z" fill="white"/>
</mask>
<g mask="url(#mask0_1282_95594)">
<path d="M62.1351 35.7816C61.7619 35.4617 61.5478 35.1265 61.528 34.7743L62.1351 35.7816ZM62.1351 35.7816L62.137 35.7832C62.5428 36.1153 63.1145 36.2736 63.8371 36.2736H65.4184H65.524V36.168V35.9606V35.855H65.4184H64.6243L64.3486 35.8048L64.3436 35.8039L64.3383 35.8036C64.1739 35.7898 63.9911 35.6784 63.7923 35.431C63.6204 35.1789 63.5279 34.8154 63.5279 34.3274V26.2133C63.5279 25.3481 63.3068 24.6315 62.8565 24.073L62.8552 24.0713C62.5604 23.7212 62.0981 23.4625 61.4828 23.2864C60.881 23.092 60.1001 22.9967 59.1448 22.9967C58.1676 22.9967 57.2716 23.3349 56.4597 24.0056C55.8104 24.5279 55.3222 25.0876 54.9991 25.6855V23.2061V23.1004H54.8932H53.0786H52.9729V23.2061V36.168V36.2736H53.0786H54.8932H54.9991V36.168V26.9651C54.9991 26.3177 55.4138 25.5661 56.2893 24.7074L56.2903 24.7067C57.1546 23.8424 58.1221 23.4156 59.1966 23.4156C59.7206 23.4156 60.1524 23.4999 60.4968 23.6634C61.1504 24.0155 61.502 24.8341 61.502 26.1874V34.3274V34.3305V34.3336L61.528 34.7743L62.1351 35.7816ZM51.3387 19.2088L51.4362 19.2462L51.4748 19.1494L51.5786 18.8902L51.6203 18.786L51.514 18.7506C49.7411 18.1597 47.993 17.8638 46.2697 17.8638C44.5614 17.8638 43.2609 18.2644 42.3869 19.0845C41.5163 19.8842 41.0828 20.9332 41.0828 22.221C41.0828 23.8459 41.7568 25.1062 43.1 25.9902C43.6927 26.391 44.3457 26.7565 45.0585 27.087L45.0608 27.0878C45.7695 27.3991 46.4698 27.7017 47.1616 27.9956L47.1626 27.996C47.8669 28.2882 48.5108 28.6058 49.0935 28.9486C50.379 29.7097 51.0119 30.7573 51.0119 32.0979C51.0119 33.326 50.5267 34.2508 49.5561 34.8869C48.5914 35.5131 47.4197 35.829 46.0364 35.829C45.0968 35.829 44.1741 35.6926 43.2684 35.4191C42.3787 35.128 41.6565 34.7617 41.0985 34.322L41.006 34.2493L40.9433 34.3493L40.8138 34.5567L40.7607 34.6416L40.8426 34.6993C42.3668 35.7678 44.2036 36.2997 46.3475 36.2997C47.4957 36.2997 48.5005 36.1693 49.3597 35.9061L49.361 35.9058C50.2463 35.6226 50.9981 35.091 51.615 34.3155C52.2362 33.5345 52.5454 32.5947 52.5454 31.5017C52.5454 30.4025 52.3623 29.4941 51.9891 28.7829C51.619 28.0607 51.1326 27.4934 50.5286 27.0849C49.9352 26.6835 49.2817 26.3263 48.5676 26.0128C47.8569 25.7007 47.146 25.4233 46.435 25.1805C45.7476 24.9226 45.1125 24.6479 44.5292 24.3564C43.2436 23.6795 42.6165 22.7354 42.6165 21.521C42.6165 20.5148 42.9919 19.7347 43.7411 19.1686C44.4941 18.5995 45.5487 18.3085 46.918 18.3085C48.3023 18.3085 49.776 18.6076 51.3387 19.2088ZM66.0779 24.8164C64.878 26.0339 64.2843 27.7407 64.2843 29.9204C64.2843 32.0982 64.8595 33.7306 66.0299 34.7947C67.1934 35.8521 68.6978 36.3775 70.534 36.3775C72.3909 36.3775 73.9226 35.7719 75.1197 34.5576C76.3371 33.3402 76.9395 31.6337 76.9395 29.4538C76.9395 27.276 76.3642 25.6436 75.1937 24.5796C74.0298 23.5217 72.5167 22.9967 70.6635 22.9967C68.8233 22.9967 67.2918 23.6024 66.0779 24.8164ZM67.5337 25.1358C68.3804 23.9843 69.4395 23.4156 70.7153 23.4156C71.9976 23.4156 73.0209 23.9028 73.7953 24.8791C74.5686 25.8542 74.9647 27.3724 74.9647 29.4538C74.9647 31.5141 74.5354 33.1137 73.6896 34.2644C72.8432 35.3987 71.7844 35.9588 70.508 35.9588C69.2259 35.9588 68.2023 35.4715 67.4279 34.4952C66.6546 33.5198 66.2585 32.0101 66.2585 29.9463C66.2585 27.8681 66.6881 26.2689 67.5337 25.1358ZM94.6017 23.2869L94.525 23.3641L94.6047 23.4388C94.8536 23.6721 94.986 24.0205 94.986 24.5023C94.986 24.9887 94.8852 25.402 94.6882 25.746L94.6867 25.75L94.6844 25.7542L91.0327 33.6628L87.1546 23.1695L87.1291 23.1004H87.0554H85.2408H85.0889L85.1415 23.2424L86.0853 25.8199L82.4772 33.6625L78.5999 23.1695L78.5736 23.1004H78.4999H76.6853H76.5334L76.5868 23.243L81.4086 36.205L81.4342 36.2736H81.5071H81.7666H81.835L81.8628 36.2119L86.3192 26.4124L89.9634 36.205L89.9889 36.2736H90.0626H90.3213H90.3897L90.4176 36.2119L95.1364 25.8423L95.1371 25.8402C95.3492 25.3447 95.4567 24.8553 95.4567 24.3727C95.4567 24.2435 95.4387 24.1072 95.4033 23.9642C95.3815 23.8051 95.3033 23.6364 95.18 23.4596C95.1273 23.372 95.0777 23.299 95.0303 23.2421C94.9837 23.1862 94.9333 23.1385 94.8792 23.1115L94.8115 23.0775L94.7574 23.1313L94.6017 23.2869Z" fill="#1C2D37"/>
<path d="M62.1351 35.7816C61.7619 35.4617 61.5478 35.1265 61.528 34.7743M62.1351 35.7816L61.528 34.7743M62.1351 35.7816L62.137 35.7832C62.5428 36.1153 63.1145 36.2736 63.8371 36.2736H65.4184H65.524V36.168V35.9606V35.855H65.4184H64.6243L64.3486 35.8048L64.3436 35.8039L64.3383 35.8036C64.1739 35.7898 63.9911 35.6784 63.7923 35.431C63.6204 35.1789 63.5279 34.8154 63.5279 34.3274V26.2133C63.5279 25.3481 63.3068 24.6315 62.8565 24.073L62.8552 24.0713C62.5604 23.7212 62.0981 23.4625 61.4828 23.2864C60.881 23.092 60.1001 22.9967 59.1448 22.9967C58.1676 22.9967 57.2716 23.3349 56.4597 24.0056C55.8104 24.5279 55.3222 25.0876 54.9991 25.6855V23.2061V23.1004H54.8932H53.0786H52.9729V23.2061V36.168V36.2736H53.0786H54.8932H54.9991V36.168V26.9651C54.9991 26.3177 55.4138 25.5661 56.2893 24.7074L56.2903 24.7067C57.1546 23.8424 58.1221 23.4156 59.1966 23.4156C59.7206 23.4156 60.1524 23.4999 60.4968 23.6634C61.1504 24.0155 61.502 24.8341 61.502 26.1874V34.3274V34.3305V34.3336L61.528 34.7743M51.3387 19.2088L51.4362 19.2462L51.4748 19.1494L51.5786 18.8902L51.6203 18.786L51.514 18.7506C49.7411 18.1597 47.993 17.8638 46.2697 17.8638C44.5614 17.8638 43.2609 18.2644 42.3869 19.0845C41.5163 19.8842 41.0828 20.9332 41.0828 22.221C41.0828 23.8459 41.7568 25.1062 43.1 25.9902C43.6927 26.391 44.3457 26.7565 45.0585 27.087L45.0608 27.0878C45.7695 27.3991 46.4698 27.7017 47.1616 27.9956L47.1626 27.996C47.8669 28.2882 48.5108 28.6058 49.0935 28.9486C50.379 29.7097 51.0119 30.7573 51.0119 32.0979C51.0119 33.326 50.5267 34.2508 49.5561 34.8869C48.5914 35.5131 47.4197 35.829 46.0364 35.829C45.0968 35.829 44.1741 35.6926 43.2684 35.4191C42.3787 35.128 41.6565 34.7617 41.0985 34.322L41.006 34.2493L40.9433 34.3493L40.8138 34.5567L40.7607 34.6416L40.8426 34.6993C42.3668 35.7678 44.2036 36.2997 46.3475 36.2997C47.4957 36.2997 48.5005 36.1693 49.3597 35.9061L49.361 35.9058C50.2463 35.6226 50.9981 35.091 51.615 34.3155C52.2362 33.5345 52.5454 32.5947 52.5454 31.5017C52.5454 30.4025 52.3623 29.4941 51.9891 28.7829C51.619 28.0607 51.1326 27.4934 50.5286 27.0849C49.9352 26.6835 49.2817 26.3263 48.5676 26.0128C47.8569 25.7007 47.146 25.4233 46.435 25.1805C45.7476 24.9226 45.1125 24.6479 44.5292 24.3564C43.2436 23.6795 42.6165 22.7354 42.6165 21.521C42.6165 20.5148 42.9919 19.7347 43.7411 19.1686C44.4941 18.5995 45.5487 18.3085 46.918 18.3085C48.3023 18.3085 49.776 18.6076 51.3387 19.2088ZM66.0779 24.8164C64.878 26.0339 64.2843 27.7407 64.2843 29.9204C64.2843 32.0982 64.8595 33.7306 66.0299 34.7947C67.1934 35.8521 68.6978 36.3775 70.534 36.3775C72.3909 36.3775 73.9226 35.7719 75.1197 34.5576C76.3371 33.3402 76.9395 31.6337 76.9395 29.4538C76.9395 27.276 76.3642 25.6436 75.1937 24.5796C74.0298 23.5217 72.5167 22.9967 70.6635 22.9967C68.8233 22.9967 67.2918 23.6024 66.0779 24.8164ZM67.5337 25.1358C68.3804 23.9843 69.4395 23.4156 70.7153 23.4156C71.9976 23.4156 73.0209 23.9028 73.7953 24.8791C74.5686 25.8542 74.9647 27.3724 74.9647 29.4538C74.9647 31.5141 74.5354 33.1137 73.6896 34.2644C72.8432 35.3987 71.7844 35.9588 70.508 35.9588C69.2259 35.9588 68.2023 35.4715 67.4279 34.4952C66.6546 33.5198 66.2585 32.0101 66.2585 29.9463C66.2585 27.8681 66.6881 26.2689 67.5337 25.1358ZM94.6017 23.2869L94.525 23.3641L94.6047 23.4388C94.8536 23.6721 94.986 24.0205 94.986 24.5023C94.986 24.9887 94.8852 25.402 94.6882 25.746L94.6867 25.75L94.6844 25.7542L91.0327 33.6628L87.1546 23.1695L87.1291 23.1004H87.0554H85.2408H85.0889L85.1415 23.2424L86.0853 25.8199L82.4772 33.6625L78.5999 23.1695L78.5736 23.1004H78.4999H76.6853H76.5334L76.5868 23.243L81.4086 36.205L81.4342 36.2736H81.5071H81.7666H81.835L81.8628 36.2119L86.3192 26.4124L89.9634 36.205L89.9889 36.2736H90.0626H90.3213H90.3897L90.4176 36.2119L95.1364 25.8423L95.1371 25.8402C95.3492 25.3447 95.4567 24.8553 95.4567 24.3727C95.4567 24.2435 95.4387 24.1072 95.4033 23.9642C95.3815 23.8051 95.3033 23.6364 95.18 23.4596C95.1273 23.372 95.0777 23.299 95.0303 23.2421C94.9837 23.1862 94.9333 23.1385 94.8792 23.1115L94.8115 23.0775L94.7574 23.1313L94.6017 23.2869Z" stroke="#1C2D37" stroke-width="0.211469"/>
<path d="M99.4703 18.2087C99.9568 17.4629 100.746 16.8852 101.841 16.8341L101.613 34.5077V34.509C101.613 34.6689 101.662 34.8407 101.753 35.023C102.179 35.8744 103.194 36.2736 104.725 36.2736H105.529H105.635V36.1679V35.9606V35.855H105.529H104.735L104.459 35.8048L104.454 35.8038L104.449 35.8035C104.284 35.7898 104.102 35.6784 103.903 35.431C103.731 35.1788 103.638 34.8153 103.638 34.3274V16.751V16.647L103.535 16.6453L101.95 16.6194L101.844 16.6177V16.6208C100.07 16.6527 98.7581 17.0699 97.9339 17.8943C97.0917 18.7189 96.6841 20.0935 96.6841 21.9876V23.1004H96.2457H96.1396V23.2061V23.625V23.7307H96.2457H96.6841V36.1679V36.2736H96.79H98.6047H98.71V36.1679V23.7307H100.652H100.757V23.625V23.2061V23.1004H100.652H98.71V21.9876C98.71 20.2125 98.9694 18.9593 99.4703 18.2087ZM113.275 29.8311C112.921 29.8028 112.533 29.7887 112.11 29.7887C111.64 29.7887 111.128 29.8148 110.573 29.8668C109.454 29.9362 108.529 30.0664 107.799 30.2588C107.071 30.4509 106.526 30.7074 106.179 31.0361C105.845 31.3524 105.63 31.6541 105.553 31.9411C105.482 32.2076 105.445 32.4589 105.445 32.6944C105.445 32.9073 105.464 33.1202 105.499 33.3329C105.648 34.3368 106.041 35.1026 106.685 35.6157C107.327 36.1278 108.207 36.3775 109.31 36.3775C110.258 36.3775 111.083 36.1821 111.78 35.7869C112.375 35.4495 112.873 34.969 113.275 34.348V34.509C113.275 34.8319 113.502 35.1867 113.902 35.569C114.366 36.05 115.208 36.2736 116.388 36.2736H117.191H117.297V36.1679V35.9606V35.855H117.191H116.397L116.122 35.8048L116.116 35.8038L116.111 35.8035C115.946 35.7898 115.764 35.6784 115.565 35.431C115.393 35.1788 115.3 34.8153 115.3 34.3274V25.643C115.3 25.0585 115.063 24.5073 114.6 23.9912C114.296 23.6511 113.839 23.4033 113.24 23.2402C112.64 23.077 111.891 22.9967 110.995 22.9967C109.389 22.9967 107.81 23.3547 106.259 24.0692L106.154 24.1175L106.212 24.2178L106.315 24.3992L106.367 24.4906L106.459 24.4388C106.844 24.2209 107.456 23.999 108.301 23.7749L108.302 23.7745C109.16 23.5342 109.902 23.4155 110.529 23.4155C111.16 23.4155 111.663 23.501 112.042 23.666L112.046 23.6675C112.434 23.8194 112.688 23.9994 112.827 24.1996C112.977 24.417 113.094 24.6421 113.178 24.8749L113.179 24.8793L113.181 24.8836C113.28 25.0975 113.305 25.2621 113.278 25.3854C113.259 25.4566 113.249 25.5201 113.249 25.5717C113.249 25.5975 113.251 25.6268 113.262 25.6548C113.265 25.6638 113.269 25.6732 113.275 25.6825V29.8311ZM107.523 33.3075V33.3059C107.506 33.1356 107.498 32.9838 107.498 32.8499C107.498 32.1079 107.692 31.5399 108.066 31.1326C108.248 30.9347 108.543 30.7606 108.963 30.6166C109.381 30.473 109.915 30.3619 110.567 30.2847C111.029 30.2333 111.492 30.2076 111.955 30.2076C112.402 30.2076 112.842 30.2224 113.275 30.2522V33.2858C113.225 33.8312 112.853 34.4198 112.119 35.0509C111.412 35.6574 110.615 35.9587 109.725 35.9587C109.06 35.9587 108.553 35.7395 108.193 35.3092C107.828 34.8749 107.6 34.2126 107.523 33.3075ZM119.501 16.7251V16.6194H119.395H117.58H117.475V16.7251V36.1679V36.2736H117.58H119.395H119.501V36.1679V29.96L120.085 29.2896L124.803 36.2275L124.835 36.2736H124.891H126.706H126.905L126.793 36.1087L121.266 27.9846L125.437 23.2762L125.593 23.1004H125.358H125.099H125.052L125.019 23.1359L119.501 29.3567V16.7251ZM136.875 35.245L136.834 35.1515L136.739 35.1879C135.405 35.701 133.88 35.9587 132.163 35.9587C130.97 35.9587 130.007 35.4739 129.266 34.4973C128.543 33.522 128.172 31.9773 128.172 29.8426C128.172 29.3787 128.195 28.93 128.239 28.4966H137.399H137.505V28.3908V28.3889V28.3878V28.3858V28.3847V28.3828V28.3817V28.3797V28.3777V28.3767V28.3756V28.3736V28.3717V28.3706V28.3686V28.3676V28.3665V28.3645V28.3625V28.3605V28.3585V28.3574V28.3564V28.3544V28.3534V28.3514V28.3493V28.3473V28.3453V28.3443V28.3423V28.3413V28.3402V28.3392V28.3372V28.3352V28.3341V28.3321V28.3301V28.328V28.3261V28.325V28.323V28.321V28.3189V28.3169V28.3149V28.3129V28.3119V28.3108V28.3098V28.3078V28.3058V28.3038V28.3028V28.3017V28.3007V28.2987V28.2967V28.2947V28.2936V28.2916V28.2896V28.2876V28.2865V28.2846V28.2835V28.2825V28.2805V28.2795V28.2774V28.2754V28.2734V28.2713V28.2693V28.2683V28.2663V28.2643V28.2622V28.2602V28.2592V28.2572V28.2552V28.2541V28.2531V28.2511V28.2501V28.2481V28.2461V28.245V28.244V28.242V28.241V28.239V28.2369V28.2349V28.2329V28.2319V28.2298V28.2279V28.2268V28.2258V28.2237V28.2218V28.2207V28.2187V28.2177V28.2157V28.2146V28.2126V28.2116V28.2096V28.2086V28.2065V28.2046V28.2035V28.2025V28.2005V28.1995V28.1974V28.1954V28.1934V28.1914V28.1904V28.1883V28.1863V28.1843V28.1823V28.1813V28.1802V28.1792V28.1772V28.1752V28.1731V28.1711V28.1701V28.1681V28.167V28.1651V28.164V28.162V28.161V28.159V28.1579V28.1559V28.1539V28.1519V28.1498V28.1479V28.1468V28.1448V28.1437V28.1418V28.1407V28.1387V28.1377V28.1357V28.1337V28.1326V28.1316C137.505 26.4514 137.014 25.1655 136.017 24.2931C135.028 23.4276 133.81 22.9967 132.37 22.9967C130.58 22.9967 129.1 23.6032 127.939 24.818C126.774 26.0357 126.198 27.7416 126.198 29.9204C126.198 32.0969 126.747 33.7287 127.864 34.7928C128.976 35.8515 130.412 36.3775 132.163 36.3775C133.919 36.3775 135.496 36.108 136.893 35.5667L136.995 35.5272L136.952 35.4265L136.875 35.245ZM134.594 24.5674C135.182 25.319 135.499 26.4831 135.529 28.0778H128.292C128.506 26.6287 128.979 25.4977 129.701 24.6763C130.462 23.8303 131.317 23.4155 132.266 23.4155C133.218 23.4155 133.991 23.7973 134.594 24.5674Z" fill="#1C2D37" stroke="#1C2D37" stroke-width="0.211469"/>
<path d="M139.793 16.4529V17.1377H139.015V19.2214H138.276V17.1377H137.497V16.4529H139.793Z" fill="#1C2D37"/>
<path d="M142.826 16.4114V19.2339H142.087V17.8642L141.546 18.5075H141.324L140.783 17.8642V19.2339H140.044V16.4114H140.305L141.435 17.6151L142.565 16.4114H142.826Z" fill="#1C2D37"/>
<path fill-rule="evenodd" clip-rule="evenodd" d="M20.6692 31.6585L20.6579 40.5597L22.5396 40.5622L22.5509 31.6194L25.9835 39.8773L27.721 39.155L24.312 30.9539L30.5839 37.242L31.9162 35.9129L25.6174 29.598L33.8556 33.017L34.5766 31.2789L26.3376 27.8596H35.2581V25.9779H26.359L34.5844 22.5809L33.8659 20.8416L25.6758 24.2242L31.9736 17.9907L30.6501 16.6534L24.274 22.9642L27.71 14.6771L25.9717 13.9564L22.5629 22.1781L22.5742 13.2778L20.6925 13.2754L20.6812 22.219L17.2482 13.9605L15.5107 14.6827L18.9194 22.883L12.6478 16.5955L11.3156 17.9244L17.6147 24.2395L9.37633 20.8204L8.65509 22.5584L16.8946 25.9779H7.97363V27.8596H16.8734L8.64772 31.2568L9.36596 32.996L17.5558 29.6136L11.2581 35.847L12.5818 37.1843L18.9576 30.8738L15.5218 39.1604L17.26 39.8811L20.6692 31.6585Z" fill="#1C2D37"/>
</g>
</svg>
