<svg width="151" height="55" viewBox="0 0 151 55" fill="none" xmlns="http://www.w3.org/2000/svg">
<path d="M50.1875 36.4518H44V18.9973H50.2386C51.9943 18.9973 53.5057 19.3467 54.7727 20.0456C56.0398 20.7387 57.0142 21.7359 57.696 23.037C58.3835 24.3382 58.7273 25.895 58.7273 27.7075C58.7273 29.5257 58.3835 31.0882 57.696 32.395C57.0142 33.7018 56.0341 34.7046 54.7557 35.4035C53.483 36.1024 51.9602 36.4518 50.1875 36.4518ZM47.6903 33.2899H50.0341C51.125 33.2899 52.0426 33.0967 52.7869 32.7103C53.5369 32.3183 54.0994 31.7132 54.4744 30.895C54.8551 30.0711 55.0455 29.0086 55.0455 27.7075C55.0455 26.4177 54.8551 25.3637 54.4744 24.5456C54.0994 23.7274 53.5398 23.1251 52.7955 22.7387C52.0511 22.3524 51.1335 22.1592 50.0426 22.1592H47.6903V33.2899Z" fill="#1C2D37"/>
<path d="M67.3587 36.7073C66.0121 36.7073 64.853 36.4346 63.8814 35.8891C62.9155 35.338 62.1712 34.5596 61.6484 33.5539C61.1257 32.5425 60.8643 31.3465 60.8643 29.9658C60.8643 28.6192 61.1257 27.4374 61.6484 26.4204C62.1712 25.4033 62.907 24.6107 63.8558 24.0425C64.8104 23.4743 65.9297 23.1902 67.2138 23.1902C68.0774 23.1902 68.8814 23.3294 69.6257 23.6079C70.3757 23.8806 71.0291 24.2925 71.5859 24.8437C72.1484 25.3948 72.5859 26.088 72.8984 26.9232C73.2109 27.7527 73.3672 28.7243 73.3672 29.838V30.8351H62.3132V28.5851H69.9496C69.9496 28.0624 69.8359 27.5993 69.6087 27.1959C69.3814 26.7925 69.0661 26.4772 68.6626 26.2499C68.2649 26.0169 67.8018 25.9005 67.2734 25.9005C66.7223 25.9005 66.2337 26.0283 65.8075 26.284C65.3871 26.534 65.0575 26.8721 64.8189 27.2982C64.5803 27.7187 64.4581 28.1874 64.4524 28.7044V30.8437C64.4524 31.4914 64.5717 32.051 64.8104 32.5226C65.0547 32.9942 65.3984 33.3579 65.8416 33.6135C66.2848 33.8692 66.8104 33.9971 67.4183 33.9971C67.8217 33.9971 68.1911 33.9402 68.5263 33.8266C68.8615 33.713 69.1484 33.5425 69.3871 33.3152C69.6257 33.088 69.8075 32.8096 69.9325 32.48L73.2905 32.7016C73.12 33.5084 72.7706 34.213 72.2422 34.8152C71.7195 35.4118 71.0433 35.8777 70.2138 36.213C69.3899 36.5425 68.4382 36.7073 67.3587 36.7073Z" fill="#1C2D37"/>
<path d="M87.5895 23.3608L83.0128 36.4517H78.9219L74.3452 23.3608H78.1804L80.8992 32.7273H81.0355L83.7457 23.3608H87.5895Z" fill="#1C2D37"/>
<path d="M93.4445 36.4518L88.4502 18.9973H92.4814L95.3706 31.1251H95.5155L98.703 18.9973H102.155L105.334 31.1507H105.487L108.376 18.9973H112.408L107.413 36.4518H103.817L100.493 25.0399H100.357L97.0411 36.4518H93.4445Z" fill="#1C2D37"/>
<path d="M114.315 36.4517V23.3608H117.945V36.4517H114.315ZM116.138 21.6733C115.599 21.6733 115.136 21.4943 114.749 21.1364C114.369 20.7727 114.178 20.3381 114.178 19.8324C114.178 19.3324 114.369 18.9034 114.749 18.5455C115.136 18.1818 115.599 18 116.138 18C116.678 18 117.138 18.1818 117.519 18.5455C117.906 18.9034 118.099 19.3324 118.099 19.8324C118.099 20.3381 117.906 20.7727 117.519 21.1364C117.138 21.4943 116.678 21.6733 116.138 21.6733Z" fill="#1C2D37"/>
<path d="M131.746 27.0937L128.422 27.2982C128.365 27.0141 128.243 26.7584 128.055 26.5311C127.868 26.2982 127.621 26.1135 127.314 25.9772C127.013 25.8351 126.652 25.7641 126.232 25.7641C125.669 25.7641 125.195 25.8834 124.808 26.1221C124.422 26.355 124.229 26.6675 124.229 27.0596C124.229 27.3721 124.354 27.6363 124.604 27.8522C124.854 28.0681 125.283 28.2414 125.891 28.3721L128.26 28.8493C129.533 29.1107 130.482 29.5312 131.107 30.1107C131.732 30.6902 132.044 31.4516 132.044 32.3948C132.044 33.2527 131.791 34.0056 131.286 34.6533C130.786 35.301 130.098 35.8067 129.223 36.1704C128.354 36.5283 127.351 36.7073 126.214 36.7073C124.482 36.7073 123.101 36.3465 122.072 35.6249C121.05 34.8976 120.45 33.909 120.274 32.659L123.845 32.4715C123.953 32.9999 124.214 33.4033 124.629 33.6817C125.044 33.9544 125.575 34.0908 126.223 34.0908C126.859 34.0908 127.371 33.9687 127.757 33.7243C128.149 33.4743 128.348 33.1533 128.354 32.7613C128.348 32.4317 128.209 32.1618 127.936 31.9516C127.663 31.7357 127.243 31.5709 126.675 31.4573L124.408 31.0056C123.129 30.7499 122.178 30.3067 121.553 29.676C120.933 29.0454 120.624 28.2414 120.624 27.2641C120.624 26.4232 120.851 25.6988 121.305 25.0908C121.766 24.4829 122.411 24.0141 123.24 23.6846C124.075 23.355 125.053 23.1902 126.172 23.1902C127.825 23.1902 129.126 23.5397 130.075 24.2385C131.03 24.9374 131.587 25.8891 131.746 27.0937Z" fill="#1C2D37"/>
<path d="M140.296 36.7075C138.95 36.7075 137.79 36.4348 136.819 35.8893C135.853 35.3382 135.109 34.5598 134.586 33.5541C134.063 32.5427 133.802 31.3467 133.802 29.966C133.802 28.6194 134.063 27.4376 134.586 26.4206C135.109 25.4035 135.844 24.6109 136.793 24.0427C137.748 23.4745 138.867 23.1904 140.151 23.1904C141.015 23.1904 141.819 23.3296 142.563 23.6081C143.313 23.8808 143.967 24.2927 144.523 24.8439C145.086 25.395 145.523 26.0882 145.836 26.9234C146.148 27.7529 146.305 28.7245 146.305 29.8382V30.8353H135.251V28.5853H142.887C142.887 28.0626 142.773 27.5995 142.546 27.1961C142.319 26.7927 142.004 26.4774 141.6 26.2501C141.202 26.0171 140.739 25.9007 140.211 25.9007C139.66 25.9007 139.171 26.0285 138.745 26.2842C138.325 26.5342 137.995 26.8723 137.756 27.2984C137.518 27.7189 137.396 28.1876 137.39 28.7046V30.8439C137.39 31.4916 137.509 32.0512 137.748 32.5228C137.992 32.9944 138.336 33.3581 138.779 33.6137C139.222 33.8694 139.748 33.9973 140.356 33.9973C140.759 33.9973 141.129 33.9404 141.464 33.8268C141.799 33.7132 142.086 33.5427 142.325 33.3154C142.563 33.0882 142.745 32.8098 142.87 32.4802L146.228 32.7018C146.058 33.5086 145.708 34.2132 145.18 34.8154C144.657 35.412 143.981 35.8779 143.151 36.2132C142.327 36.5427 141.376 36.7075 140.296 36.7075Z" fill="#1C2D37"/>
<path fill-rule="evenodd" clip-rule="evenodd" d="M35.9265 29.0196C35.9751 28.5196 36 28.0127 36 27.5C36 27.1939 35.9911 26.8899 35.9736 26.5882H5.02637C5.00887 26.8899 5 27.1939 5 27.5C5 28.0127 5.02489 28.5196 5.07354 29.0196H35.9265ZM35.118 32.6666H5.88196C6.1812 33.5133 6.55191 34.3261 6.98684 35.098H34.0132C34.4481 34.3261 34.8188 33.5133 35.118 32.6666ZM31.1677 38.7451H9.8323C12.6112 41.3821 16.3666 43 20.5 43C24.6334 43 28.3888 41.3821 31.1677 38.7451ZM5.68128 22.9411H35.3187C35.0596 22.0978 34.7304 21.285 34.338 20.5098H6.66201C6.2696 21.285 5.94043 22.0978 5.68128 22.9411ZM9.22618 16.8627H31.7738C28.9478 13.8686 24.9421 12 20.5 12C16.0579 12 12.0522 13.8686 9.22618 16.8627Z" fill="#1C2D37"/>
<path fill-rule="evenodd" clip-rule="evenodd" d="M35.9265 29.0196C35.9751 28.5196 36 28.0127 36 27.5C36 27.1939 35.9911 26.8899 35.9736 26.5882H5.02637C5.00887 26.8899 5 27.1939 5 27.5C5 28.0127 5.02489 28.5196 5.07354 29.0196H35.9265ZM35.118 32.6666H5.88196C6.1812 33.5133 6.55191 34.3261 6.98684 35.098H34.0132C34.4481 34.3261 34.8188 33.5133 35.118 32.6666ZM31.1677 38.7451H9.8323C12.6112 41.3821 16.3666 43 20.5 43C24.6334 43 28.3888 41.3821 31.1677 38.7451ZM5.68128 22.9411H35.3187C35.0596 22.0978 34.7304 21.285 34.338 20.5098H6.66201C6.2696 21.285 5.94043 22.0978 5.68128 22.9411ZM9.22618 16.8627H31.7738C28.9478 13.8686 24.9421 12 20.5 12C16.0579 12 12.0522 13.8686 9.22618 16.8627Z" fill="#1C2D37"/>
</svg>
